<?xml version="1.0" standalone="no"?>
<!DOCTYPE svg PUBLIC "-//W3C//DTD SVG 20010904//EN"
 "http://www.w3.org/TR/2001/REC-SVG-20010904/DTD/svg10.dtd">
<svg version="1.0" xmlns="http://www.w3.org/2000/svg"
 width="1280.000000pt" height="1280.000000pt" viewBox="0 0 1280.000000 1280.000000"
 preserveAspectRatio="xMidYMid meet">
<metadata>
Created by potrace 1.11, written by Peter Selinger 2001-2013
</metadata>
<g transform="translate(0.000000,1280.000000) scale(0.100000,-0.100000)"
fill="#000000" stroke="none">
<path d="M8909 12324 c-9 -11 -15 -12 -25 -3 -10 8 -14 8 -14 0 0 -6 -5 -11
-11 -11 -5 0 -7 6 -3 13 5 8 2 8 -9 -2 -14 -11 -17 -11 -17 0 0 8 -5 6 -13 -6
-11 -14 -16 -15 -22 -5 -6 9 -4 11 5 5 9 -5 11 -4 6 4 -6 8 -12 9 -20 2 -7 -6
-17 -7 -22 -3 -4 4 -3 0 3 -8 10 -13 8 -16 -7 -16 -10 0 -17 4 -14 8 2 4 -5 6
-16 5 -11 -1 -20 -5 -20 -10 0 -5 -7 -6 -16 -3 -10 4 -13 2 -8 -7 5 -8 2 -7
-9 2 -10 7 -17 9 -17 3 0 -6 -11 -9 -25 -8 -15 2 -22 -1 -18 -7 4 -6 0 -8 -10
-4 -10 4 -17 2 -17 -5 0 -7 -4 -7 -13 0 -14 12 -51 -10 -39 -24 4 -4 0 -3 -10
4 -12 9 -18 10 -23 2 -4 -6 -13 -9 -20 -7 -6 3 -23 -5 -37 -18 -20 -18 -28
-21 -37 -12 -7 7 -12 8 -11 2 5 -22 -1 -27 -17 -14 -15 13 -15 12 -4 -10 11
-19 11 -22 -1 -15 -7 5 -19 9 -26 10 -11 2 -11 0 0 -14 8 -9 8 -13 1 -9 -6 4
-14 1 -16 -5 -4 -10 -6 -10 -6 0 -1 6 -6 12 -12 12 -6 0 -9 -6 -6 -14 4 -9 -2
-12 -19 -10 -13 1 -22 -2 -18 -7 3 -5 -2 -9 -10 -9 -8 0 -21 -7 -30 -15 -8 -9
-21 -14 -28 -13 -7 2 -12 -3 -10 -9 1 -7 -3 -13 -9 -13 -5 0 -7 -6 -3 -12 5
-9 2 -8 -9 1 -15 12 -17 12 -11 -4 5 -13 4 -16 -4 -11 -8 4 -12 0 -12 -11 -1
-17 -1 -17 -14 0 -11 14 -15 15 -19 4 -3 -8 0 -20 6 -26 9 -9 8 -11 -5 -6 -11
5 -18 2 -18 -6 0 -7 -3 -9 -7 -5 -4 4 -15 -8 -25 -26 -13 -22 -17 -25 -12 -10
6 23 5 23 -15 5 -21 -18 -28 -29 -13 -19 5 3 9 -1 9 -9 0 -8 -4 -12 -9 -9 -5
4 -16 -2 -24 -12 -9 -11 -12 -13 -8 -5 5 10 3 12 -5 6 -7 -4 -11 -16 -8 -26 3
-10 0 -22 -5 -26 -7 -3 -8 -1 -4 5 10 16 -2 15 -19 -2 -8 -7 -11 -17 -7 -21 4
-5 -2 -5 -12 -1 -16 5 -17 4 -6 -9 11 -13 10 -14 -4 -9 -11 4 -16 2 -14 -7 2
-7 -4 -14 -12 -14 -8 0 -14 -6 -13 -13 2 -7 -3 -12 -10 -12 -8 0 -7 -4 3 -11
12 -9 11 -10 -6 -6 -17 4 -20 1 -17 -14 4 -14 0 -19 -13 -19 -12 0 -15 -3 -8
-8 9 -5 8 -11 -2 -20 -8 -7 -14 -9 -14 -5 0 4 -5 0 -11 -10 -5 -9 -7 -23 -3
-30 5 -7 0 -5 -11 3 -17 14 -18 14 -6 -8 9 -17 9 -22 0 -20 -7 2 -15 -8 -19
-22 -4 -14 -12 -24 -19 -22 -7 1 -11 -5 -9 -14 2 -9 -3 -19 -11 -22 -9 -3 -11
0 -6 8 6 9 4 11 -4 6 -9 -6 -8 -13 5 -27 15 -17 15 -19 2 -14 -9 4 -19 1 -24
-6 -5 -8 -3 -10 7 -4 8 5 6 -1 -4 -13 -11 -12 -16 -26 -11 -33 5 -9 2 -10 -9
-6 -11 4 -14 2 -10 -9 3 -7 1 -14 -5 -14 -6 0 -8 -8 -5 -18 2 -11 -7 -29 -23
-45 -21 -22 -23 -26 -8 -21 15 5 14 1 -6 -16 -14 -12 -19 -19 -13 -15 10 4 11
0 4 -17 -4 -13 -6 -30 -4 -38 4 -12 3 -13 -5 -1 -20 28 -38 -6 -19 -36 4 -6 2
-15 -4 -19 -8 -5 -9 -3 -4 6 5 8 4 11 -3 7 -5 -4 -9 -19 -7 -33 2 -19 -1 -24
-13 -19 -12 4 -13 3 -2 -10 10 -12 10 -15 -1 -15 -11 0 -11 -2 1 -10 14 -9 7
-15 -14 -11 -5 1 -4 -4 2 -12 10 -11 9 -17 -3 -27 -8 -7 -15 -18 -15 -24 0 -6
5 -4 10 4 5 8 10 11 10 7 0 -4 -8 -20 -17 -34 -10 -15 -13 -24 -8 -21 6 4 11
-2 11 -12 0 -15 -3 -16 -14 -8 -10 9 -12 8 -10 -3 2 -8 8 -17 13 -21 6 -5 5
-8 -3 -8 -9 0 -13 -11 -11 -34 2 -19 -1 -39 -5 -43 -5 -5 -6 -2 -1 6 5 10 4
12 -4 7 -6 -4 -8 -13 -4 -19 13 -21 11 -62 -4 -79 -11 -12 -11 -18 -2 -24 8
-4 10 -3 5 4 -4 7 -2 12 3 12 15 0 14 -15 -3 -29 -15 -12 -16 -28 -3 -48 5 -8
3 -13 -5 -14 -7 0 -4 -4 7 -9 11 -5 14 -9 7 -9 -9 -1 -10 -6 -2 -20 7 -13 7
-22 0 -26 -5 -3 -10 -11 -10 -16 0 -6 6 -7 13 -3 8 5 8 2 -2 -9 -11 -14 -11
-17 0 -17 11 0 11 -2 -1 -10 -10 -7 -11 -10 -2 -10 8 0 11 -11 9 -36 -3 -21 1
-41 9 -49 11 -10 11 -14 1 -18 -9 -3 -9 -8 2 -20 10 -13 11 -20 2 -31 -10 -12
-8 -14 11 -10 13 2 17 2 11 -2 -7 -3 -13 -10 -13 -15 0 -6 6 -7 13 -3 9 6 9 5
-1 -8 -10 -12 -10 -17 1 -27 8 -6 18 -7 23 -3 5 4 0 -3 -11 -16 -11 -13 -15
-23 -10 -22 23 5 33 -1 28 -18 -2 -10 2 -24 11 -31 8 -7 12 -19 9 -27 -3 -8 5
-26 17 -39 12 -13 19 -28 15 -34 -3 -6 2 -11 12 -12 16 0 16 -1 -2 -9 -14 -6
-16 -9 -5 -10 8 -2 19 -2 23 -1 5 1 5 -8 2 -20 -5 -15 -4 -19 4 -15 7 5 11 -1
11 -14 0 -12 9 -24 23 -30 13 -5 16 -9 7 -10 -9 0 -6 -6 10 -15 14 -8 19 -14
11 -15 -10 0 -8 -7 9 -25 12 -13 26 -22 31 -20 8 5 25 -33 21 -47 -1 -5 4 -8
12 -8 9 0 13 -11 13 -34 -1 -28 -4 -33 -14 -24 -11 9 -12 6 -4 -15 8 -21 7
-25 -4 -21 -10 4 -13 0 -10 -15 2 -14 -1 -18 -11 -14 -12 5 -19 -13 -15 -39 0
-4 -6 -5 -14 -2 -16 7 -37 -33 -27 -51 3 -5 -2 -4 -12 4 -14 12 -17 12 -14 1
2 -8 -2 -14 -9 -15 -6 0 -15 -4 -20 -9 -4 -5 -3 -7 3 -3 6 3 11 1 11 -6 0 -7
-8 -13 -18 -13 -10 0 -15 5 -12 11 4 5 -3 2 -15 -9 -20 -17 -22 -17 -28 -2 -3
9 -10 16 -16 16 -5 0 -6 -6 -2 -12 5 -9 2 -8 -10 1 -13 11 -14 16 -4 24 9 6 8
7 -5 3 -10 -3 -21 -6 -23 -6 -3 0 -2 -6 2 -12 6 -10 5 -10 -8 -1 -8 7 -18 10
-21 6 -4 -3 -7 -1 -7 6 0 7 -7 11 -15 8 -8 -4 -17 -1 -21 5 -5 7 -2 8 6 3 8
-5 11 -4 7 2 -3 5 -20 8 -37 7 -23 -2 -28 1 -21 10 7 8 4 12 -10 13 -11 1 -17
-3 -13 -9 4 -5 -4 -5 -17 2 -32 17 -39 25 -14 16 16 -6 17 -5 8 5 -10 9 -15
10 -27 0 -11 -9 -16 -9 -22 0 -5 8 -3 9 6 4 9 -5 11 -4 6 4 -5 7 -16 9 -28 5
-15 -4 -18 -3 -13 7 6 9 3 11 -8 6 -11 -4 -17 -1 -17 8 0 8 -5 15 -11 15 -5 0
-7 -4 -4 -10 11 -17 -7 -11 -21 8 -13 16 -14 16 -8 -3 4 -14 1 -13 -9 5 -9 14
-18 24 -21 23 -3 -2 -16 -3 -27 -3 -16 0 -19 3 -11 13 8 10 6 13 -7 13 -13 0
-17 -5 -13 -15 5 -14 4 -14 -10 -1 -9 8 -14 18 -12 22 2 3 -7 5 -20 4 -15 -2
-27 3 -31 12 -3 9 -14 13 -30 10 -20 -4 -23 -3 -14 8 9 11 6 14 -15 14 -19 0
-25 4 -20 13 5 7 0 6 -11 -3 -17 -14 -18 -13 -12 2 4 13 2 15 -10 11 -11 -5
-14 -3 -8 6 6 11 3 11 -16 0 -22 -11 -23 -11 -11 4 11 13 10 15 -9 10 -17 -5
-20 -3 -14 8 8 12 6 12 -9 0 -15 -12 -17 -12 -14 0 2 8 -3 13 -9 11 -7 -1 -13
2 -13 7 0 5 -7 12 -16 15 -15 6 -15 4 -3 -11 13 -16 12 -17 -3 -4 -10 7 -18
21 -18 30 0 14 -2 14 -10 1 -5 -8 -10 -10 -10 -4 0 6 -11 10 -25 9 -13 -2 -24
0 -24 3 3 19 -2 32 -12 32 -5 0 -8 -4 -5 -8 3 -5 -1 -9 -8 -9 -8 0 -11 8 -8
21 5 19 4 19 -11 7 -15 -12 -21 -9 -18 11 0 4 -6 4 -15 1 -10 -4 -20 1 -26 11
-5 9 -13 14 -19 11 -5 -4 -9 -1 -9 4 0 6 -9 11 -20 11 -11 0 -20 5 -20 10 0 6
-9 10 -20 10 -11 0 -20 4 -20 9 0 5 -9 11 -21 14 -13 4 -18 10 -13 18 4 8 3
10 -5 5 -6 -4 -9 -12 -6 -17 4 -5 1 -9 -4 -9 -6 0 -11 7 -11 16 0 10 -5 14
-16 10 -8 -3 -12 -2 -9 4 3 6 -1 10 -9 10 -9 0 -16 4 -16 10 0 5 -7 7 -15 4
-10 -4 -15 0 -15 12 0 16 -2 17 -10 4 -8 -12 -10 -10 -10 8 0 13 -4 20 -10 17
-6 -4 -8 -12 -4 -18 3 -7 -4 1 -16 16 -19 23 -25 26 -38 15 -12 -10 -14 -10
-8 0 4 7 2 12 -4 12 -6 0 -8 6 -4 13 6 10 4 10 -7 0 -20 -19 -33 -16 -18 5 7
9 10 14 5 10 -5 -4 -18 -2 -29 3 -15 8 -22 8 -29 -2 -6 -10 -7 -6 -2 11 6 23
6 24 -11 10 -11 -9 -16 -10 -11 -2 5 8 0 12 -16 12 -18 0 -20 2 -8 10 12 7 8
10 -15 10 -20 0 -35 7 -43 21 -10 16 -16 18 -27 9 -12 -10 -13 -8 -10 10 3 17
1 19 -9 11 -9 -8 -18 -6 -33 9 -12 10 -24 16 -27 13 -3 -4 -6 2 -6 13 0 16 -2
17 -10 4 -9 -13 -10 -13 -11 0 -1 8 -1 19 0 23 1 5 -3 6 -9 2 -6 -3 -8 -10 -5
-15 10 -17 -46 17 -60 36 -14 18 -14 18 -15 -1 l-1 -20 -8 20 c-5 11 -6 27 -4
35 3 9 2 11 -4 5 -10 -12 -45 -16 -37 -4 3 5 -5 9 -18 9 -18 0 -20 2 -8 10 12
8 10 10 -8 10 -15 0 -21 4 -16 12 4 6 3 8 -4 5 -13 -9 -44 2 -37 13 3 4 -2 11
-11 14 -10 4 -13 2 -9 -7 4 -6 -1 -3 -9 7 -9 11 -16 14 -16 8 0 -7 -5 -12 -11
-12 -5 0 -7 5 -4 10 3 6 -1 13 -9 16 -9 3 -13 11 -9 18 4 6 -1 5 -10 -3 -15
-12 -17 -11 -18 10 0 13 -3 18 -6 12 -2 -7 -12 -13 -21 -13 -13 0 -14 2 -4 9
10 6 9 10 -7 14 -12 3 -19 1 -16 -3 3 -4 -4 -6 -15 -3 -11 3 -18 9 -15 13 3 5
1 11 -4 14 -5 4 -13 1 -17 -5 -5 -8 -3 -9 6 -4 9 5 11 4 6 -3 -4 -7 -15 -8
-29 -3 -13 5 -30 5 -39 0 -11 -6 -19 -5 -24 2 -5 8 -3 9 6 4 9 -6 11 -4 5 5
-6 10 -13 7 -27 -11 -11 -13 -17 -18 -13 -12 4 9 1 11 -9 7 -9 -3 -14 -10 -11
-14 3 -5 -4 -6 -15 -3 -13 3 -20 0 -20 -8 0 -11 -2 -11 -10 1 -8 13 -10 12
-10 -2 0 -10 -6 -17 -12 -15 -7 1 -12 -4 -10 -11 2 -10 -2 -10 -17 -3 -21 12
-35 3 -21 -13 5 -7 5 -17 -2 -26 -8 -12 -9 -11 -4 3 4 12 2 17 -6 14 -7 -2
-12 -11 -12 -20 1 -10 -4 -13 -14 -10 -11 5 -13 3 -7 -7 6 -10 4 -12 -7 -7
-11 4 -15 0 -14 -11 3 -18 -10 -35 -34 -45 -13 -5 -13 -6 0 -7 10 0 6 -6 -10
-15 -14 -8 -19 -14 -12 -15 6 0 12 -5 12 -11 0 -6 -6 -9 -14 -6 -10 4 -13 0
-11 -14 6 -30 -4 -49 -23 -41 -14 5 -15 3 -4 -10 10 -13 10 -17 -3 -22 -13 -4
-14 -10 -5 -26 6 -11 7 -20 3 -19 -20 3 -27 -2 -13 -11 11 -7 11 -10 2 -10 -8
0 -10 -5 -6 -12 5 -8 1 -9 -12 -5 -18 7 -18 7 0 -8 11 -8 15 -15 9 -15 -7 0
-10 -11 -7 -26 3 -17 1 -23 -6 -19 -7 4 -9 -2 -5 -18 4 -14 2 -28 -4 -31 -6
-4 -11 -12 -11 -17 0 -6 4 -7 10 -4 6 3 7 -1 4 -9 -3 -9 -10 -13 -15 -10 -5 3
-9 0 -9 -5 0 -6 4 -11 9 -11 5 0 8 -11 7 -24 0 -13 -4 -22 -8 -19 -5 2 -8 -3
-8 -12 0 -9 4 -13 10 -10 6 3 7 -1 4 -9 -3 -9 -9 -14 -13 -12 -4 3 -7 -4 -7
-14 0 -10 4 -16 8 -14 4 3 8 -4 8 -15 0 -10 -6 -22 -12 -24 -10 -4 -10 -6 0
-6 19 -1 14 -21 -5 -21 -15 0 -15 -2 -4 -9 21 -13 22 -53 2 -46 -14 4 -13 3 1
-8 15 -12 15 -14 0 -25 -9 -7 -12 -10 -6 -7 7 2 14 -2 18 -10 3 -8 0 -15 -6
-15 -6 0 -5 -6 3 -17 10 -11 10 -14 2 -9 -7 4 -13 2 -13 -3 0 -6 6 -11 13 -11
8 0 7 -4 -3 -10 -10 -6 -11 -10 -2 -10 6 0 12 -4 12 -10 0 -5 -6 -8 -12 -6 -7
1 -10 1 -5 -1 4 -3 4 -10 1 -15 -4 -7 -2 -8 4 -4 7 4 12 1 12 -9 0 -10 -5 -13
-12 -9 -7 4 -6 -1 3 -12 17 -19 22 -57 7 -48 -4 3 -8 0 -8 -5 0 -6 3 -11 8
-11 4 0 8 -11 8 -24 1 -14 -3 -23 -10 -22 -6 2 -8 1 -3 -1 4 -3 4 -10 1 -15
-4 -6 -3 -8 3 -5 6 4 10 -8 11 -29 1 -25 -2 -33 -11 -28 -7 4 -4 -2 5 -13 21
-23 23 -37 6 -28 -7 4 -2 -3 12 -14 14 -12 18 -19 9 -15 -10 3 -20 0 -25 -7
-4 -8 -3 -10 4 -5 7 4 12 2 12 -4 0 -6 5 -8 11 -4 7 4 9 0 5 -14 -5 -15 -1
-21 15 -25 18 -5 20 -9 11 -20 -10 -11 -9 -17 5 -28 11 -9 14 -10 9 -1 -4 6
-2 12 3 12 6 0 11 -9 11 -19 0 -18 25 -36 44 -32 4 1 15 -4 23 -11 18 -15 45
-20 37 -7 -3 5 -9 7 -14 4 -5 -3 -11 -1 -15 4 -3 6 4 8 16 6 13 -3 26 -10 31
-17 5 -9 8 -7 8 7 0 16 2 17 9 5 6 -8 7 -19 5 -25 -3 -5 4 1 15 14 l21 23 0
-23 c0 -19 2 -21 10 -9 5 8 10 11 10 6 0 -5 8 -2 17 5 11 10 14 10 9 2 -4 -7
-2 -13 3 -13 6 0 11 6 11 13 0 8 3 7 10 -3 6 -9 21 -14 41 -12 24 3 29 1 23
-10 -6 -10 -4 -10 9 1 9 7 17 9 17 3 0 -5 13 -8 29 -7 23 2 28 -1 23 -13 -3
-9 -1 -13 5 -9 6 4 19 0 27 -9 9 -8 16 -12 16 -7 0 5 -5 14 -12 21 -9 9 -5 9
15 0 15 -7 27 -17 27 -21 0 -5 4 -6 9 -3 5 4 16 3 25 0 14 -5 14 -9 4 -22 -11
-13 -10 -14 10 -3 12 6 22 7 22 2 0 -5 10 -7 23 -4 18 4 19 3 7 -7 -13 -10
-12 -11 5 -8 21 4 58 -25 47 -38 -4 -4 -1 -4 6 0 11 6 11 11 0 23 -12 15 -11
15 9 3 12 -8 19 -18 17 -22 -3 -4 0 -8 6 -8 6 0 8 -5 4 -12 -4 -7 -3 -8 5 -4
6 4 8 13 4 19 -5 8 -2 8 9 0 8 -7 18 -11 21 -8 4 3 5 2 3 -1 -3 -3 1 -12 7
-19 9 -10 15 -10 26 -1 12 8 13 8 7 -1 -4 -8 -2 -13 4 -13 6 0 8 -5 4 -12 -6
-10 -4 -10 8 0 14 11 17 10 23 -7 3 -12 11 -21 16 -21 6 0 7 5 4 10 -3 6 -2
10 4 10 5 0 13 -10 16 -21 5 -14 10 -18 14 -10 6 9 12 7 22 -5 8 -10 9 -15 2
-11 -6 4 -14 3 -17 -2 -7 -11 13 -9 33 3 10 7 12 6 6 -4 -6 -10 -4 -12 8 -7 9
3 19 1 23 -5 4 -6 3 -8 -4 -4 -6 3 -13 3 -16 -2 -5 -8 8 -12 46 -13 10 0 17
-3 17 -7 -1 -4 -1 -14 0 -22 1 -13 2 -13 11 0 5 8 10 10 10 4 0 -7 9 -14 21
-17 12 -3 18 -10 14 -16 -4 -7 0 -8 11 -4 13 5 15 3 9 -8 -7 -12 -6 -12 7 -1
13 10 17 10 22 -3 3 -9 2 -13 -3 -10 -5 3 -13 0 -17 -7 -4 -7 -4 -10 1 -6 4 4
17 3 28 -3 14 -8 18 -8 13 0 -4 6 -2 11 3 11 6 0 11 -7 11 -15 0 -9 9 -15 23
-15 18 0 19 -2 7 -10 -12 -8 -10 -10 8 -10 13 0 20 -4 17 -10 -3 -5 1 -10 10
-10 10 0 13 5 9 13 -5 8 -2 8 9 -2 9 -7 17 -20 17 -27 0 -8 6 -11 17 -7 12 5
15 2 10 -10 -4 -12 -1 -15 14 -12 12 3 17 0 13 -7 -5 -8 -1 -9 10 -5 13 5 15
3 7 -11 -9 -16 -6 -18 20 -14 22 3 29 1 27 -9 -2 -8 4 -13 14 -13 10 1 20 -7
23 -17 4 -11 13 -19 21 -19 8 0 17 -7 21 -16 3 -8 12 -13 19 -10 7 3 16 0 20
-6 4 -7 3 -8 -4 -4 -7 4 -12 3 -12 -3 0 -5 9 -13 20 -16 11 -4 17 -11 14 -17
-4 -6 3 -5 16 2 19 10 21 10 12 -7 -9 -15 -7 -19 9 -20 10 -1 30 -13 43 -27
14 -13 33 -27 43 -30 27 -9 45 -43 34 -64 -7 -12 -5 -22 7 -35 11 -13 12 -18
3 -15 -7 2 -15 -4 -16 -12 -2 -8 -6 -31 -10 -50 -4 -19 -7 -43 -8 -52 -1 -10
-5 -14 -12 -8 -6 5 -11 -2 -12 -21 -2 -20 2 -27 9 -23 7 4 8 3 4 -4 -4 -7 -15
-12 -24 -12 -14 0 -15 -2 -2 -10 12 -8 12 -10 -3 -16 -12 -4 -14 -10 -8 -18
11 -13 -22 -59 -35 -48 -5 4 -2 -2 6 -12 13 -18 13 -19 -1 -14 -12 5 -14 0
-11 -23 3 -20 -1 -31 -11 -35 -9 -3 -13 -12 -11 -19 3 -7 0 -16 -7 -21 -8 -5
-10 -3 -4 6 6 9 4 11 -4 5 -9 -5 -10 -10 -2 -18 13 -13 15 -30 2 -23 -5 3 -15
-2 -22 -11 -8 -9 -9 -14 -3 -10 7 4 14 0 17 -8 4 -10 1 -12 -10 -8 -12 5 -14
3 -8 -7 6 -10 4 -12 -10 -6 -15 5 -16 4 -5 -9 9 -11 9 -15 1 -15 -7 0 -9 -5
-5 -12 5 -8 1 -9 -12 -4 -15 6 -16 5 -7 -5 10 -10 9 -15 -5 -26 -9 -8 -11 -12
-4 -8 18 9 15 -10 -5 -26 -14 -12 -16 -12 -8 0 5 10 4 12 -4 7 -9 -6 -9 -11 1
-24 11 -13 11 -15 -3 -10 -13 5 -15 1 -12 -20 4 -21 2 -24 -6 -12 -9 12 -11
11 -11 -7 0 -12 -4 -24 -9 -28 -6 -3 -8 -15 -6 -26 4 -17 2 -19 -11 -8 -12 10
-13 9 -8 -5 3 -9 1 -16 -6 -16 -6 0 -8 -4 -5 -10 3 -5 1 -10 -6 -10 -8 0 -8
-4 1 -15 11 -13 10 -14 -5 -9 -15 6 -17 3 -12 -15 3 -13 3 -21 0 -18 -2 3 -13
-2 -23 -11 -16 -13 -17 -19 -7 -31 10 -12 9 -13 -2 -6 -11 6 -13 4 -8 -9 4
-10 1 -19 -9 -23 -8 -3 -13 -12 -10 -20 3 -8 1 -11 -4 -8 -6 3 -10 0 -10 -9 0
-8 -4 -16 -10 -18 -5 -1 -11 -13 -13 -26 -2 -12 -9 -28 -15 -34 -7 -7 -12 -18
-12 -25 0 -7 -5 -13 -11 -13 -5 0 -7 -6 -3 -12 6 -10 4 -10 -8 0 -14 11 -16
10 -11 -9 4 -15 2 -20 -5 -15 -7 4 -10 -1 -7 -13 2 -13 -6 -28 -23 -41 -15
-12 -22 -19 -15 -16 6 4 15 2 18 -4 4 -6 3 -10 -2 -9 -4 1 -14 1 -22 0 -11 -1
-11 -4 0 -18 8 -9 9 -14 3 -10 -7 4 -18 -1 -25 -10 -8 -10 -9 -14 -2 -10 6 4
15 2 19 -4 4 -7 3 -9 -4 -5 -6 3 -13 2 -17 -4 -4 -6 -11 -7 -17 -4 -6 4 -6 -1
1 -14 10 -18 8 -20 -9 -17 -22 4 -28 -10 -7 -18 9 -4 9 -6 0 -6 -7 -1 -13 -8
-13 -17 0 -9 -5 -12 -12 -8 -7 5 -9 2 -5 -8 7 -18 -20 -61 -34 -53 -5 3 -6 -2
-2 -11 4 -12 3 -15 -5 -10 -8 5 -10 1 -5 -10 5 -14 3 -16 -10 -11 -15 5 -16 3
-7 -13 13 -24 13 -40 0 -20 -8 13 -11 13 -22 1 -10 -10 -10 -12 0 -7 6 4 12 2
12 -3 0 -6 -4 -11 -9 -11 -5 0 -11 -9 -14 -21 -3 -12 -10 -18 -15 -15 -6 4 -8
-3 -5 -16 4 -19 3 -20 -7 -8 -10 12 -11 11 -7 -8 3 -12 2 -20 -3 -17 -4 3 -14
-3 -21 -12 -10 -12 -10 -14 -1 -9 6 4 12 3 12 -3 0 -12 -35 -33 -43 -25 -3 3
-3 -4 0 -17 5 -17 3 -20 -8 -14 -11 7 -11 5 1 -10 8 -10 10 -16 4 -12 -7 4
-18 -1 -25 -10 -10 -12 -10 -14 -1 -9 17 10 15 1 -4 -18 -8 -9 -16 -25 -17
-35 -1 -14 -5 -17 -13 -11 -14 13 -24 2 -17 -18 4 -9 2 -13 -4 -9 -7 5 -9 -1
-6 -15 4 -19 3 -20 -6 -8 -9 13 -11 12 -12 -5 -1 -11 -1 -24 0 -29 1 -5 -5 -6
-12 -3 -11 4 -13 0 -9 -15 4 -17 2 -20 -12 -15 -14 6 -15 4 -5 -16 12 -21 11
-21 -6 -7 -11 9 -16 10 -11 3 4 -8 2 -13 -4 -13 -6 0 -8 -5 -4 -11 4 -7 -4
-20 -17 -31 -13 -11 -18 -17 -11 -13 6 3 12 1 12 -4 0 -6 -9 -11 -20 -11 -11
0 -20 -4 -20 -10 0 -5 5 -10 11 -10 5 0 7 -5 4 -10 -4 -6 -11 -8 -16 -5 -5 4
-6 -2 -2 -12 6 -15 4 -16 -9 -5 -13 10 -18 10 -24 1 -4 -8 -3 -9 4 -5 7 4 12
1 12 -8 0 -9 -5 -16 -11 -16 -5 0 -7 -4 -4 -10 3 -5 -2 -10 -12 -10 -15 0 -16
-2 -3 -10 12 -8 10 -10 -10 -10 -14 0 -20 -4 -15 -8 13 -9 19 -35 6 -28 -5 4
-12 -3 -16 -14 -4 -11 -10 -18 -15 -15 -5 3 -7 -3 -5 -15 2 -11 -1 -23 -7 -26
-6 -4 -8 -2 -4 4 3 6 2 14 -4 17 -6 4 -10 3 -9 -2 4 -26 -2 -44 -13 -37 -8 5
-7 0 2 -11 9 -11 10 -16 3 -11 -7 4 -13 2 -13 -3 0 -6 -4 -11 -10 -11 -5 0 -7
8 -4 18 5 14 4 14 -4 2 -8 -10 -8 -18 0 -27 7 -9 7 -13 -1 -13 -6 0 -11 -7
-11 -16 0 -8 -4 -13 -9 -10 -5 3 -11 -8 -15 -24 -3 -19 -12 -30 -22 -30 -11 0
-14 -5 -10 -16 4 -12 2 -15 -9 -10 -8 3 -15 1 -15 -4 0 -6 5 -10 12 -10 15 0
0 -15 -15 -15 -7 -1 -11 -6 -9 -13 1 -7 -2 -12 -8 -12 -6 0 -9 -6 -8 -12 2 -7
-3 -12 -10 -10 -6 1 -11 -1 -10 -5 3 -17 -15 -42 -26 -36 -6 4 -5 -1 3 -11 12
-15 12 -17 0 -14 -8 2 -13 -3 -11 -11 2 -9 -3 -11 -13 -7 -9 3 -13 2 -10 -4 4
-6 3 -19 0 -31 -5 -16 -9 -18 -21 -8 -12 10 -13 9 -8 -5 4 -9 1 -16 -6 -16
-10 0 -10 -3 0 -15 11 -13 10 -14 -4 -9 -12 5 -15 2 -9 -12 5 -14 3 -16 -11
-11 -10 4 -15 3 -11 -3 3 -6 1 -10 -5 -10 -6 0 -8 -5 -5 -10 3 -6 -8 -22 -25
-36 -17 -15 -29 -33 -26 -40 3 -8 1 -14 -5 -14 -6 0 -7 -5 -4 -11 4 -6 -2 -13
-14 -16 -12 -3 -21 -10 -21 -15 0 -5 6 -6 13 -2 6 4 2 -3 -10 -15 -13 -12 -23
-26 -23 -32 0 -6 -5 -7 -12 -3 -8 5 -9 2 -5 -9 4 -12 1 -17 -11 -18 -11 0 -12
-2 -4 -6 9 -3 7 -10 -9 -24 -12 -10 -19 -25 -16 -33 4 -10 1 -13 -9 -9 -7 3
-14 0 -14 -7 0 -6 -5 -8 -12 -4 -8 5 -7 0 2 -11 8 -10 11 -16 5 -13 -5 3 -15
0 -22 -7 -10 -11 -10 -15 0 -19 7 -4 2 -4 -10 -2 -13 2 -23 0 -23 -5 0 -5 6
-9 13 -9 8 0 8 -3 1 -8 -11 -8 -28 -43 -26 -54 1 -4 -5 -5 -13 -2 -8 4 -15 1
-15 -5 0 -5 -10 -19 -22 -31 -12 -11 -19 -20 -15 -20 4 0 3 -9 -3 -20 -6 -11
-18 -20 -27 -20 -13 0 -13 -3 -3 -15 7 -9 10 -18 6 -22 -3 -3 -6 -1 -6 5 0 7
-4 12 -10 12 -5 0 -7 -6 -4 -14 6 -16 -29 -40 -41 -28 -5 4 -5 1 -1 -6 4 -7
12 -9 18 -6 7 4 8 2 4 -4 -4 -7 -15 -12 -24 -12 -15 0 -15 -2 -2 -10 13 -8 12
-10 -3 -10 -11 0 -15 -5 -11 -11 3 -6 -8 -24 -25 -40 -18 -16 -30 -33 -26 -38
3 -6 -4 -8 -17 -6 -22 4 -22 4 -4 -10 17 -13 18 -15 3 -15 -9 0 -17 -6 -17
-14 0 -8 -7 -17 -16 -20 -9 -3 -14 -13 -11 -21 4 -10 1 -12 -11 -8 -15 6 -15
5 -4 -10 12 -14 11 -16 -6 -12 -16 3 -20 -1 -17 -17 4 -17 2 -18 -12 -6 -12 9
-15 9 -9 1 4 -8 2 -13 -4 -13 -6 0 -8 -4 -5 -10 3 -5 -1 -10 -9 -10 -9 0 -16
-5 -16 -11 0 -5 5 -7 12 -3 7 5 8 3 4 -5 -5 -7 -10 -10 -14 -7 -3 3 -18 -10
-35 -29 -16 -19 -38 -35 -49 -35 -10 0 -16 -4 -13 -10 3 -5 1 -10 -6 -10 -6 0
-18 -8 -26 -17 -8 -10 -12 -12 -8 -5 3 6 1 12 -4 12 -10 0 -15 -12 -13 -30 0
-3 -11 -6 -26 -5 -16 0 -26 -5 -25 -12 2 -8 -4 -10 -14 -6 -13 5 -15 2 -10
-11 5 -12 3 -15 -6 -9 -19 12 -40 10 -61 -7 -17 -13 -19 -13 -12 0 4 8 1 7 -7
-3 -14 -17 -15 -17 -19 -1 -3 16 -4 16 -18 -1 -12 -15 -12 -17 -1 -10 10 6 12
4 7 -4 -6 -9 -13 -8 -27 5 -19 17 -20 17 -13 -2 7 -17 6 -17 -9 -5 -14 11 -20
11 -34 0 -12 -10 -15 -10 -9 -1 5 9 -1 12 -21 11 -42 -3 -55 0 -49 9 3 5 -1 9
-9 9 -8 0 -12 -4 -10 -8 9 -13 -25 -3 -38 11 -9 11 -8 11 8 0 19 -14 19 -14 6
3 -10 12 -17 14 -26 7 -9 -8 -14 -4 -18 12 -5 17 -9 20 -18 11 -13 -13 -39 -7
-39 9 0 6 8 4 18 -3 15 -12 16 -12 4 2 -7 9 -23 15 -37 13 -14 -1 -25 2 -25 7
0 6 -6 7 -12 3 -8 -5 -7 0 2 11 9 11 10 16 3 11 -8 -4 -13 -2 -13 5 0 8 -5 7
-17 -2 -11 -10 -14 -10 -9 -1 4 6 3 12 -3 12 -5 0 -13 9 -16 20 -4 11 -15 20
-27 20 -13 0 -18 5 -15 14 4 10 -1 12 -16 9 -18 -4 -19 -3 -7 6 12 9 11 11 -8
11 -13 0 -20 4 -17 10 3 6 1 10 -5 10 -6 0 -8 5 -4 12 5 8 2 9 -9 5 -11 -4
-17 -1 -17 7 0 8 -7 16 -15 20 -8 3 -15 12 -15 20 0 8 -9 18 -20 21 -11 3 -20
11 -20 16 0 6 6 7 13 4 6 -4 4 0 -6 9 -11 8 -26 12 -35 9 -14 -5 -15 -3 -4 8
18 20 15 34 -5 18 -11 -10 -14 -10 -9 -2 8 14 -17 57 -27 46 -4 -3 -7 1 -7 11
0 10 5 14 12 10 7 -4 8 -3 4 4 -4 6 -14 8 -24 5 -9 -3 -14 -3 -10 2 4 4 0 14
-10 22 -11 10 -12 12 -2 8 8 -4 5 2 -7 13 -17 15 -19 22 -10 31 7 7 8 12 2 11
-20 -4 -35 0 -35 11 0 5 6 7 13 4 6 -3 2 2 -11 11 -12 9 -22 25 -22 36 0 23
-24 50 -35 40 -4 -4 -2 4 4 16 7 13 10 26 7 30 -3 3 -6 0 -6 -6 0 -18 -16 -15
-18 3 -1 8 -3 22 -4 29 -1 8 -4 15 -7 14 -18 -2 -22 4 -12 16 10 11 8 16 -7
20 -11 4 -22 15 -25 26 -3 14 0 17 12 14 9 -3 6 1 -7 8 -12 8 -20 17 -16 21 4
4 -1 17 -12 29 -16 19 -16 20 -1 9 15 -12 17 -12 11 3 -3 9 -10 16 -14 16 -4
0 -10 9 -13 21 -5 17 -3 18 11 7 9 -7 6 0 -8 15 -18 21 -20 26 -7 21 12 -4 17
-2 15 7 -2 8 5 14 14 14 9 0 20 4 25 9 4 5 3 6 -3 3 -6 -3 -11 0 -11 8 0 13 3
13 23 0 21 -13 24 -13 33 3 6 9 11 12 11 6 0 -6 14 -11 30 -10 17 1 28 6 26
12 -4 11 29 12 40 1 4 -4 13 -2 20 4 8 7 14 7 19 -1 3 -5 11 -10 16 -10 6 0 7
4 4 10 -3 6 1 7 9 4 9 -3 13 -11 10 -16 -4 -6 4 -5 16 2 18 9 24 9 30 0 6 -9
9 -9 13 1 5 12 6 12 6 0 1 -11 4 -11 18 0 14 12 16 12 8 0 -6 -11 -4 -13 7 -8
9 3 21 0 27 -6 9 -9 10 -7 5 8 -7 18 -6 19 12 5 10 -8 22 -19 26 -25 4 -5 8
-1 8 10 0 17 2 17 10 5 7 -11 10 -11 10 -2 0 8 5 10 12 6 23 -15 46 -11 40 5
-3 9 -2 13 3 9 4 -4 15 -2 23 5 10 8 13 8 9 1 -4 -7 0 -14 8 -17 9 -4 12 -1 9
7 -3 8 0 17 7 22 8 5 10 3 4 -6 -6 -9 -4 -11 4 -6 7 5 10 14 7 22 -4 10 0 11
21 3 23 -9 25 -8 12 7 -11 14 -11 17 4 25 9 6 17 15 17 21 0 6 -5 7 -13 2 -7
-5 -5 -1 6 8 10 10 16 22 13 27 -4 5 0 12 6 14 9 4 9 6 -1 6 -11 1 -10 5 5 17
10 8 14 13 8 10 -7 -3 -15 1 -18 10 -3 8 -2 13 2 10 4 -2 9 4 9 15 1 10 -3 19
-8 19 -6 0 -7 -5 -3 -12 4 -7 3 -8 -5 -4 -9 6 -9 11 1 24 10 12 10 14 1 8 -9
-5 -13 0 -13 14 0 16 -4 20 -15 16 -13 -4 -14 -2 -5 14 6 11 7 20 3 19 -18 -4
-41 14 -36 27 3 9 -1 14 -13 14 -17 0 -16 1 2 15 16 13 16 14 2 9 -17 -6 -24
9 -19 39 0 4 -3 7 -7 7 -4 0 -9 12 -10 28 -1 15 -10 33 -20 41 -16 13 -16 13
1 7 17 -5 17 -4 3 16 -14 20 -14 24 1 41 10 10 13 18 8 17 -6 -2 -17 -2 -25
-1 -13 1 -13 3 0 10 8 6 18 7 24 4 5 -3 6 -1 2 5 -4 6 -12 9 -19 6 -7 -2 -13
4 -14 16 -1 13 2 18 10 13 7 -4 6 1 -2 11 -10 12 -11 20 -4 27 12 12 6 49 -8
49 -5 0 -9 5 -9 11 0 5 4 8 8 5 5 -3 9 2 9 10 0 8 -6 13 -13 10 -8 -3 -11 0
-7 9 3 8 9 13 13 10 5 -3 6 4 3 15 -3 11 -10 17 -17 13 -6 -3 -6 0 2 8 15 16
16 33 1 24 -6 -4 -5 2 2 13 11 17 10 24 -2 38 -9 11 -9 15 -1 10 13 -8 17 6 5
18 -4 4 -8 22 -8 41 0 28 2 31 15 22 10 -8 9 -3 -4 17 -10 16 -12 25 -5 21 9
-6 11 -3 6 8 -4 10 -1 17 6 18 7 0 3 4 -8 9 -17 7 -17 9 -2 9 9 1 17 6 17 12
0 5 -5 7 -10 4 -5 -3 -10 -1 -10 4 0 6 5 11 10 11 7 0 7 6 0 20 -9 16 -8 20 7
21 16 0 15 1 -2 9 -18 7 -19 8 -3 15 23 9 13 26 -10 19 -13 -5 -14 -4 -3 4 7
5 11 14 7 20 -3 6 -1 14 5 18 7 4 9 3 5 -4 -3 -6 -2 -13 3 -16 10 -7 9 20 -2
30 -4 4 -1 14 6 22 10 13 9 14 -3 7 -13 -8 -13 -7 -1 8 7 9 9 17 3 17 -5 0 -9
11 -8 24 0 15 5 21 11 16 6 -5 11 2 12 17 1 19 -1 22 -8 12 -7 -11 -9 -11 -9
3 0 9 7 24 16 32 8 9 11 16 5 16 -6 0 -11 11 -11 25 0 14 4 25 8 25 4 0 8 8 8
19 0 13 -5 17 -15 13 -14 -5 -14 -4 -1 10 8 9 20 13 25 10 6 -3 2 3 -7 14 -14
17 -15 21 -2 38 9 14 11 23 3 32 -7 8 -7 14 0 18 6 4 8 13 5 20 -3 8 0 17 7
22 8 5 10 3 4 -6 -6 -9 -4 -11 5 -5 11 7 10 10 -1 19 -8 6 -15 19 -15 29 -2
14 1 15 12 6 12 -10 13 -9 8 6 -6 14 -4 16 7 11 8 -4 5 0 -5 8 -19 15 -19 16
-1 16 18 0 18 1 -1 16 -10 8 -14 13 -7 10 15 -8 27 10 13 19 -7 4 -7 11 -2 18
14 18 23 49 13 42 -5 -3 -12 -1 -16 5 -3 5 1 10 10 10 12 0 13 5 7 18 -4 9 -8
24 -7 32 0 8 -5 21 -13 29 -7 7 -16 26 -19 42 -5 26 -14 34 -35 30 -5 0 -8 5
-8 13 0 18 -34 32 -82 35 -10 0 -18 9 -18 19 0 14 -2 15 -10 2 -8 -13 -13 -13
-31 -2 -19 12 -21 12 -16 -2 4 -10 1 -13 -8 -9 -8 3 -13 8 -11 12 3 4 -6 7
-20 7 -16 0 -23 -5 -20 -12 3 -8 -1 -11 -10 -7 -7 3 -14 10 -14 17 0 6 -5 4
-10 -4 -8 -12 -13 -13 -29 -3 -13 8 -22 9 -26 3 -4 -6 -11 -7 -17 -4 -6 4 -8
2 -5 -3 4 -6 -2 -13 -14 -16 -18 -5 -18 -3 -7 11 11 14 8 14 -16 -2 -16 -10
-26 -14 -23 -9 4 5 0 10 -8 10 -8 0 -12 -4 -9 -9 5 -8 -10 -12 -35 -9 -8 2
-10 -2 -5 -11 6 -10 4 -10 -9 1 -14 11 -20 11 -33 0 -13 -10 -17 -10 -26 2 -8
11 -9 11 -4 -3 4 -14 -2 -19 -34 -24 -22 -4 -40 -11 -40 -16 0 -5 -5 -6 -11
-2 -6 3 -15 0 -20 -7 -8 -14 -12 -15 -50 -18 -11 0 -18 -5 -14 -10 3 -6 -4 -8
-16 -6 -14 3 -19 0 -16 -9 4 -10 -1 -12 -15 -8 -16 4 -19 2 -13 -8 6 -9 4 -11
-5 -5 -7 4 -16 2 -21 -6 -8 -12 -11 -12 -19 1 -8 12 -10 11 -10 -8 0 -20 -2
-22 -22 -11 -22 12 -22 11 -8 -7 8 -10 11 -16 6 -12 -5 4 -18 1 -28 -7 -11 -7
-28 -11 -37 -8 -11 3 -12 2 -4 -4 8 -6 9 -14 3 -23 -7 -10 -10 -11 -10 -2 0 6
-5 12 -11 12 -6 0 -9 -7 -6 -14 4 -11 1 -13 -10 -9 -12 5 -15 2 -10 -10 6 -15
4 -16 -14 -6 -13 7 -19 7 -15 1 3 -6 2 -13 -4 -17 -6 -4 -8 -11 -4 -16 3 -5 2
-8 -3 -7 -4 1 -19 -3 -33 -10 -23 -12 -23 -12 3 8 15 12 27 26 27 30 0 5 -14
-4 -31 -20 -21 -19 -29 -33 -23 -42 6 -9 2 -9 -11 2 -17 14 -18 13 -12 -4 6
-14 4 -17 -8 -12 -9 3 -15 0 -15 -9 0 -8 -11 -17 -25 -21 -13 -3 -30 -13 -37
-22 -11 -13 -11 -14 2 -7 13 8 13 6 2 -7 -8 -9 -20 -14 -28 -11 -10 4 -12 0
-7 -13 4 -12 3 -15 -5 -10 -7 4 -12 2 -12 -3 0 -6 -7 -11 -16 -11 -8 0 -12 -4
-9 -10 5 -9 -7 -14 -26 -12 -4 1 -5 -9 -2 -21 4 -18 3 -19 -6 -7 -9 13 -11 13
-11 -1 0 -16 -50 -65 -62 -61 -5 1 -8 -3 -8 -9 0 -5 -3 -8 -7 -6 -5 2 -16 -4
-25 -15 -20 -21 -16 -23 15 -7 21 10 21 10 3 -5 -11 -9 -23 -16 -28 -16 -4 0
-8 -8 -8 -17 0 -14 -2 -15 -9 -5 -6 10 -11 9 -22 -4 -12 -16 -12 -17 1 -10 8
5 2 -4 -15 -19 -16 -14 -24 -23 -16 -19 10 5 12 3 7 -5 -5 -7 -14 -10 -21 -7
-9 3 -12 -1 -10 -13 3 -15 -1 -18 -18 -14 -18 4 -19 3 -7 -6 15 -10 13 -12
-12 -15 -10 -1 -17 -20 -20 -53 -1 -9 -5 -10 -15 -2 -10 9 -13 8 -13 -4 0 -8
-7 -17 -15 -21 -8 -3 -14 -11 -13 -18 2 -7 -5 -12 -15 -12 -14 2 -15 -1 -6
-12 9 -11 8 -14 -5 -14 -10 0 -14 -4 -11 -10 3 -5 1 -10 -5 -10 -6 0 -8 -5 -4
-12 5 -7 2 -9 -9 -5 -12 4 -15 1 -12 -16 4 -20 3 -20 -9 -5 -11 15 -13 14 -13
-14 0 -18 -6 -34 -17 -40 -9 -5 -13 -14 -9 -21 4 -7 -2 -5 -13 3 -10 8 -16 11
-12 6 12 -14 -12 -65 -28 -59 -8 3 -14 2 -13 -3 3 -20 -2 -34 -21 -52 -11 -10
-21 -29 -23 -43 -2 -13 -10 -24 -18 -24 -8 0 -13 -8 -13 -18 1 -9 -2 -14 -7
-11 -5 3 -9 0 -9 -6 0 -6 -4 -8 -10 -5 -6 4 -7 -1 -3 -11 3 -10 2 -15 -3 -12
-5 3 -18 -6 -28 -21 -20 -26 -20 -26 0 -8 12 9 24 17 28 17 5 0 -6 -12 -23
-27 -17 -15 -31 -32 -31 -38 0 -6 -9 -16 -20 -23 -14 -8 -19 -20 -16 -37 3
-17 1 -22 -9 -19 -7 3 -16 0 -21 -7 -4 -7 -3 -10 2 -6 5 3 10 -3 10 -13 0 -14
-4 -16 -13 -9 -9 8 -11 6 -8 -10 3 -14 0 -19 -7 -15 -8 5 -9 1 -4 -11 5 -15 4
-16 -9 -5 -13 11 -14 10 -9 -5 5 -12 4 -16 -3 -12 -7 4 -10 0 -9 -10 4 -23
-20 -46 -36 -37 -10 6 -9 3 0 -9 15 -18 7 -41 -10 -31 -7 4 -8 2 -4 -5 4 -6 2
-18 -4 -26 -6 -8 -8 -20 -4 -27 6 -9 3 -9 -9 1 -15 12 -17 12 -11 -4 6 -14 4
-16 -7 -10 -12 7 -12 6 1 -11 8 -10 10 -16 6 -12 -14 12 -36 -11 -29 -29 5
-11 3 -14 -6 -8 -10 6 -11 3 -3 -12 9 -15 8 -20 -3 -20 -8 0 -11 5 -8 10 3 6
1 7 -6 3 -6 -4 -9 -11 -6 -16 3 -4 -2 -13 -9 -19 -8 -7 -13 -23 -11 -36 1 -16
-3 -25 -12 -25 -8 0 -11 -4 -8 -10 3 -5 2 -10 -4 -10 -5 0 -8 -9 -6 -19 3 -14
-1 -18 -11 -14 -17 6 -18 -9 -1 -26 10 -10 9 -11 -4 -6 -10 4 -20 1 -25 -6 -4
-7 -3 -10 3 -6 6 4 14 0 17 -9 3 -8 2 -13 -2 -10 -4 2 -12 -7 -19 -20 -6 -13
-8 -22 -3 -19 4 3 11 -2 14 -11 3 -8 2 -12 -4 -9 -6 3 -10 2 -10 -4 0 -5 8
-15 18 -20 15 -9 14 -10 -8 -11 l-25 0 25 -13 c14 -7 24 -20 22 -29 -1 -9 4
-18 13 -22 8 -3 15 -13 15 -23 0 -16 2 -16 11 -3 9 12 10 11 6 -6 -3 -13 1
-21 9 -21 7 0 10 5 7 10 -4 6 -1 7 8 1 8 -4 20 -9 28 -11 8 -1 18 -8 22 -15 7
-10 9 -10 10 2 0 10 3 8 9 -5 8 -19 9 -19 9 -1 1 19 2 19 14 2 12 -16 14 -16
26 -2 8 9 24 16 37 16 18 0 24 6 24 21 0 11 5 17 10 14 6 -4 7 -11 4 -17 -5
-7 -2 -8 5 -4 7 5 10 14 7 21 -2 7 3 12 12 11 9 0 17 5 18 12 3 24 4 24 19 12
12 -10 15 -10 15 4 0 9 5 16 11 16 5 0 7 -6 3 -12 -5 -8 0 -7 11 2 10 8 20 14
22 13 10 -8 23 -1 17 9 -4 7 -3 8 5 4 6 -4 9 -12 5 -17 -3 -6 5 -8 19 -5 32 6
52 -8 43 -29 -5 -15 -4 -16 8 -6 20 17 28 -2 11 -25 -8 -10 -15 -34 -15 -52 0
-18 -4 -31 -8 -28 -5 3 -8 -5 -7 -17 1 -12 -3 -29 -9 -37 -9 -13 -9 -13 6 -2
14 11 16 11 11 -7 -3 -12 -10 -21 -17 -21 -6 0 -4 -5 4 -10 11 -7 11 -10 2
-10 -7 0 -10 -5 -7 -10 4 -6 1 -18 -7 -27 -11 -14 -11 -16 1 -8 11 6 13 4 8
-7 -3 -9 0 -21 6 -28 10 -10 7 -10 -11 0 -22 11 -23 10 -12 -9 6 -12 8 -21 4
-21 -3 0 0 -8 7 -17 12 -15 12 -16 -3 -10 -13 4 -16 1 -13 -14 2 -10 6 -23 10
-28 3 -5 -3 -12 -12 -14 -16 -4 -16 -5 1 -6 20 -1 20 -1 0 -17 -10 -8 -13 -13
-6 -9 7 4 12 0 12 -10 0 -10 5 -13 12 -9 7 4 8 3 4 -4 -4 -6 -14 -8 -22 -5
-14 5 -14 3 -3 -15 10 -17 10 -23 0 -36 -11 -13 -11 -16 3 -16 9 0 16 -5 16
-11 0 -5 -4 -7 -10 -4 -5 3 -10 1 -10 -5 0 -6 -5 -8 -12 -4 -7 4 -8 3 -4 -5 4
-6 11 -9 15 -7 3 3 7 -4 7 -14 0 -10 -4 -16 -8 -14 -12 8 -9 -11 4 -24 9 -9 9
-12 0 -12 -6 0 -9 -7 -5 -17 5 -12 3 -14 -8 -9 -8 4 -6 1 4 -7 14 -11 15 -16
5 -20 -10 -4 -10 -6 1 -6 11 -1 11 -4 1 -16 -10 -12 -10 -15 1 -15 11 0 11 -2
-1 -10 -11 -7 -11 -10 -2 -10 7 0 10 -5 7 -10 -4 -6 -12 -8 -18 -4 -7 3 -3 -2
8 -11 15 -13 16 -19 7 -22 -10 -4 -8 -9 5 -19 15 -12 15 -13 1 -8 -19 6 -19
-19 -1 -37 9 -9 8 -17 -3 -34 -12 -19 -13 -24 0 -34 8 -7 12 -21 8 -33 -4 -16
-2 -19 9 -13 8 5 5 -1 -5 -13 -11 -12 -16 -25 -13 -29 4 -3 7 0 7 7 0 20 14 2
15 -20 1 -10 -2 -17 -7 -14 -4 3 -8 0 -8 -5 0 -6 4 -11 9 -11 6 0 10 -21 9
-48 0 -66 1 -74 10 -68 4 2 8 -4 8 -14 0 -15 -3 -17 -16 -7 -10 8 -10 5 2 -9
14 -16 15 -23 5 -34 -10 -10 -9 -12 6 -7 15 6 16 3 7 -13 -7 -14 -6 -22 4 -33
11 -11 12 -17 3 -26 -8 -8 -8 -11 2 -11 8 0 11 -6 7 -15 -3 -8 0 -15 7 -15 8
0 6 -4 -3 -10 -14 -9 -7 -14 15 -11 6 1 1 -6 -10 -15 -20 -16 -20 -16 3 -11
19 4 21 3 12 -8 -8 -10 -8 -19 -1 -34 16 -29 13 -38 -5 -15 -14 18 -15 18 -4
-4 6 -12 15 -22 21 -22 6 0 7 -5 4 -10 -4 -6 -11 -7 -17 -4 -7 4 -8 2 -4 -5 4
-6 12 -9 17 -6 5 4 9 2 9 -4 0 -5 -6 -12 -12 -14 -7 -3 -2 -6 12 -7 14 -1 19
-4 13 -7 -7 -2 -13 -9 -13 -14 0 -6 4 -8 8 -5 5 3 9 -1 9 -9 0 -8 -3 -12 -7
-10 -3 2 -6 -5 -6 -15 0 -15 3 -17 15 -7 12 9 13 9 8 0 -5 -7 0 -25 10 -40 10
-15 13 -24 7 -20 -7 4 -15 0 -18 -9 -4 -11 -2 -15 8 -11 10 4 13 -2 11 -24 -1
-16 2 -29 7 -29 5 0 6 -5 2 -12 -5 -8 -2 -9 10 -5 14 6 15 3 6 -13 -8 -14 -8
-20 0 -20 6 0 8 -5 4 -12 -4 -6 1 -17 11 -25 11 -7 13 -13 7 -13 -7 0 -12 -5
-12 -11 0 -5 4 -8 9 -5 10 6 24 -19 25 -44 0 -8 7 -21 16 -28 13 -12 13 -13
-1 -9 -13 4 -15 1 -12 -14 5 -17 14 -23 34 -21 3 1 6 -5 6 -13 0 -8 -4 -12 -8
-9 -4 2 -11 0 -14 -6 -4 -6 -1 -9 7 -8 7 2 13 -5 13 -14 0 -10 7 -23 16 -30
18 -14 35 -53 19 -43 -6 3 -7 -1 -4 -9 3 -9 14 -16 23 -16 14 0 14 -2 1 -10
-11 -7 -11 -10 -2 -10 7 0 10 -4 7 -10 -3 -5 0 -10 7 -11 7 0 4 -4 -7 -9 -19
-8 -19 -9 2 -9 19 -1 22 -6 19 -30 -2 -21 0 -28 10 -24 8 3 14 0 14 -7 0 -6 6
-8 13 -4 10 6 10 4 0 -7 -16 -17 -17 -33 -1 -23 8 5 9 2 4 -11 -5 -15 -4 -16
9 -5 9 7 15 9 14 4 -5 -29 2 -55 14 -48 9 6 9 5 -1 -8 -10 -13 -9 -18 5 -29
17 -13 17 -13 3 6 -14 19 -14 19 3 6 10 -8 16 -22 14 -32 -3 -11 0 -16 7 -13
10 4 14 -7 18 -53 1 -6 7 -9 15 -6 9 4 11 0 6 -13 -5 -13 -3 -15 8 -9 8 4 11
4 6 0 -4 -5 1 -18 10 -29 17 -20 17 -20 0 -7 -15 12 -17 12 -11 -3 3 -9 13
-16 21 -16 8 0 11 -5 8 -11 -4 -6 1 -17 11 -25 11 -9 13 -13 6 -9 -6 3 -12 1
-12 -4 0 -6 6 -11 14 -11 8 0 16 -7 19 -14 4 -11 1 -14 -11 -10 -9 2 -7 -1 6
-8 16 -8 22 -18 18 -30 -4 -17 -2 -17 12 -6 9 7 14 9 10 4 -10 -12 11 -48 23
-40 7 4 7 -1 0 -15 -10 -17 -9 -21 3 -21 18 0 40 -36 31 -50 -3 -6 1 -10 9
-10 10 0 16 -9 16 -22 0 -18 2 -20 9 -9 7 11 10 9 13 -10 2 -13 9 -23 16 -21
10 2 10 -2 2 -18 -9 -16 -8 -18 5 -14 10 4 15 0 15 -10 0 -9 5 -16 10 -16 6 0
10 -8 10 -17 0 -10 5 -25 11 -33 8 -12 9 -9 4 10 l-7 25 17 -23 c9 -12 13 -27
9 -34 -5 -7 -3 -8 6 -3 10 6 12 4 7 -9 -5 -11 -3 -15 5 -10 7 5 9 2 5 -9 -5
-12 0 -15 21 -11 17 3 22 1 14 -4 -14 -9 -6 -42 10 -42 5 0 6 -5 2 -12 -5 -8
-2 -9 11 -5 14 6 16 3 12 -12 -4 -15 0 -19 15 -16 17 4 18 2 6 -12 -7 -9 -8
-14 -3 -11 6 3 15 0 22 -7 10 -11 10 -15 0 -18 -7 -3 -4 -6 6 -6 10 -1 16 -5
12 -10 -3 -5 4 -13 16 -16 15 -5 19 -13 16 -27 -5 -16 -3 -17 11 -6 12 10 14
10 8 0 -4 -7 -1 -15 9 -18 12 -5 13 -9 4 -20 -9 -12 -9 -13 3 -9 8 3 21 -2 29
-12 13 -17 13 -17 -5 -3 -18 14 -18 14 -6 -7 8 -12 18 -19 22 -17 4 3 8 -1 8
-8 0 -7 9 -19 21 -26 13 -8 18 -19 15 -29 -6 -13 -4 -14 9 -3 9 7 15 9 14 4
-4 -22 2 -35 13 -28 8 5 9 2 5 -9 -4 -11 -1 -17 9 -17 8 0 12 -4 9 -10 -3 -5
1 -10 11 -10 14 0 14 -3 4 -16 -8 -8 -9 -14 -4 -13 22 4 34 -2 34 -17 0 -8 5
-12 10 -9 6 3 10 -4 10 -16 0 -12 3 -20 6 -16 11 11 36 -23 30 -41 -5 -13 -3
-13 10 3 16 20 16 19 12 -7 -4 -18 -1 -25 8 -21 7 2 18 -5 24 -17 6 -11 16
-18 21 -14 7 4 6 -3 -1 -16 -7 -12 -8 -20 -2 -16 5 3 12 -1 16 -9 3 -8 12 -15
21 -15 8 0 15 -7 15 -16 0 -8 5 -12 10 -9 6 3 10 -4 10 -17 0 -18 2 -20 10 -8
8 13 10 12 10 -2 0 -16 11 -23 33 -19 4 1 3 -8 -3 -18 -7 -14 -7 -22 2 -27 7
-4 8 -3 4 4 -4 7 -4 12 -1 12 11 0 34 -27 29 -33 -3 -3 4 -8 15 -12 18 -5 26
-22 23 -46 -1 -4 8 -5 18 -2 12 3 20 0 20 -6 0 -7 -5 -9 -12 -5 -7 4 -8 3 -4
-4 4 -7 14 -12 23 -12 9 0 13 -6 10 -15 -4 -8 -1 -17 5 -21 7 -4 8 -3 4 4 -4
7 -2 12 3 12 6 0 11 -10 11 -21 0 -18 3 -19 15 -9 12 10 14 8 10 -8 -2 -12 4
-27 13 -34 13 -11 14 -11 7 1 -5 10 -4 12 3 7 7 -4 12 -15 12 -24 0 -15 2 -15
10 -2 8 12 10 11 10 -7 0 -13 8 -24 20 -28 11 -3 20 -14 20 -22 0 -9 3 -13 7
-10 10 10 35 -31 27 -45 -4 -7 -3 -8 4 -4 22 14 36 -6 16 -22 -18 -13 -18 -14
5 -7 18 5 22 4 16 -6 -6 -8 -4 -11 7 -7 8 4 15 0 15 -8 0 -7 -5 -10 -10 -7 -6
3 -7 1 -3 -5 4 -7 14 -12 22 -12 8 0 13 -4 9 -9 -3 -5 2 -17 11 -25 8 -9 12
-16 8 -16 -4 0 -1 -6 8 -12 9 -7 18 -22 20 -33 2 -11 11 -19 21 -19 10 1 14
-3 10 -10 -13 -20 -11 -36 3 -36 9 0 12 -4 9 -10 -3 -5 -1 -10 4 -10 6 0 10
-3 10 -7 -4 -22 2 -33 14 -27 7 5 6 0 -3 -11 -8 -10 -10 -16 -3 -12 7 5 17 -2
24 -15 11 -21 11 -22 -5 -9 -14 12 -16 12 -10 -3 3 -9 11 -16 16 -16 6 0 8 -9
5 -20 -3 -10 0 -18 5 -17 6 1 12 -5 13 -13 2 -8 6 -24 10 -35 l8 -20 -17 20
c-17 19 -17 19 -4 -5 7 -14 11 -31 9 -39 -1 -7 2 -10 7 -7 5 3 12 -3 15 -14 3
-11 2 -18 -2 -16 -6 4 -6 -40 -1 -54 1 -3 2 -8 1 -12 0 -5 5 -8 13 -8 9 0 12
-7 9 -20 -3 -11 -9 -17 -14 -14 -5 3 -6 -2 -3 -11 6 -14 8 -14 20 2 13 16 13
15 4 -10 -7 -19 -7 -26 0 -22 6 3 10 1 10 -5 0 -15 26 -41 33 -33 4 3 4 -7 2
-23 -2 -16 -2 -23 1 -16 8 18 35 15 32 -4 -3 -18 38 -28 48 -13 3 5 14 3 25
-4 16 -10 21 -9 29 3 9 13 10 13 10 0 0 -13 1 -13 10 0 9 13 10 13 10 0 0 -12
2 -12 9 -2 5 8 20 15 33 15 15 1 24 7 21 13 -2 7 1 15 8 20 8 5 10 3 4 -5 -4
-7 4 -5 19 4 14 10 26 22 26 27 0 5 4 7 9 4 5 -3 11 4 14 15 3 12 10 18 16 14
6 -3 11 -1 11 6 0 8 5 7 17 -2 11 -10 14 -10 9 -1 -12 19 3 35 20 21 12 -10
15 -10 12 2 -2 9 6 14 24 14 15 0 34 9 43 20 9 11 14 15 11 9 -3 -7 1 -14 9
-17 9 -4 12 -1 9 7 -3 7 2 16 11 20 9 3 13 2 10 -4 -3 -6 -2 -10 4 -10 5 0 12
4 15 9 3 5 15 11 26 14 11 3 18 2 15 -2 -2 -4 3 -8 11 -8 9 0 13 6 9 15 -4 11
-2 12 8 4 10 -9 17 -8 27 1 10 9 11 9 6 0 -4 -7 -2 -13 3 -13 6 0 11 4 11 9 0
5 11 9 25 9 13 0 22 -4 19 -9 -2 -4 8 -2 23 6 25 13 29 13 35 -3 5 -13 7 -13
7 -2 1 20 69 19 82 -1 7 -11 9 -11 9 4 0 22 8 22 33 -1 11 -9 17 -12 14 -5 -4
6 -3 14 2 17 5 3 12 -2 16 -11 5 -16 8 -15 25 7 l19 25 -5 -25 c-4 -18 -3 -21
4 -11 7 9 16 11 28 6 35 -15 46 -14 40 3 -4 9 3 6 14 -8 11 -14 18 -18 15 -9
-4 11 1 15 19 15 14 0 22 -4 20 -8 -3 -4 -2 -8 3 -9 4 0 19 -2 33 -5 19 -3 21
-2 10 6 -9 6 -10 10 -3 10 7 0 18 -6 25 -14 11 -11 15 -11 25 3 11 14 12 13 8
-7 -3 -18 -1 -21 8 -14 13 11 96 10 115 -2 7 -4 12 -3 12 2 0 10 42 8 59 -3 6
-3 11 2 11 12 0 15 2 15 9 3 6 -8 7 -18 4 -24 -3 -5 -1 -6 5 -2 7 4 12 14 12
22 0 13 3 13 17 -2 16 -15 17 -15 24 2 4 11 8 13 8 7 1 -7 13 -13 27 -13 17 0
23 -4 18 -12 -6 -10 -4 -10 7 -2 21 16 55 23 70 13 8 -4 20 -3 28 4 12 10 13
9 8 -3 -5 -10 -4 -9 4 1 12 16 14 16 28 0 9 -9 13 -12 8 -5 -11 18 19 25 34 8
8 -10 15 -11 24 -4 8 6 16 5 25 -3 10 -9 11 -9 6 1 -4 6 -2 12 4 12 6 0 8 5 4
12 -5 7 -3 8 5 4 7 -5 10 -15 6 -23 -4 -12 -2 -13 7 -6 7 6 22 9 32 7 11 -1
24 0 30 3 18 12 76 11 76 -1 0 -6 5 -4 10 4 8 12 10 12 10 1 0 -11 3 -11 15
-1 8 7 15 8 15 3 0 -14 35 -9 54 6 14 12 16 11 10 -5 -6 -16 -5 -17 7 -6 7 6
17 12 22 12 4 0 5 -6 1 -12 -6 -10 -5 -10 7 -1 12 10 18 10 28 0 10 -9 11 -8
6 8 -6 17 -5 18 7 5 14 -16 52 -24 42 -9 -3 5 5 9 18 8 13 0 42 2 66 4 24 2
46 -1 49 -6 4 -6 1 -7 -7 -2 -9 6 -11 4 -5 -5 6 -10 11 -9 21 4 8 11 14 13 19
7 8 -14 25 -14 25 0 0 5 -6 7 -12 3 -7 -4 -10 -3 -6 1 11 11 58 16 58 5 0 -4
7 -11 16 -14 8 -3 13 -2 10 3 -3 5 1 11 9 15 8 3 17 0 21 -6 4 -7 9 -6 15 3 7
11 9 9 10 -6 l0 -20 9 20 c5 11 9 14 9 6 1 -10 4 -11 15 -2 10 8 16 9 21 1 3
-5 12 -10 18 -10 7 0 6 4 -3 10 -13 9 -13 10 0 10 9 0 21 -5 28 -12 9 -9 15
-8 28 8 8 10 13 14 9 7 -4 -9 7 -11 41 -6 38 4 45 3 40 -8 -4 -8 -1 -6 6 3 9
11 19 14 28 8 8 -5 21 -5 31 1 22 11 32 12 25 1 -3 -5 1 -9 9 -9 8 0 11 5 8
10 -3 5 0 7 8 5 8 -3 13 -12 11 -19 -2 -8 7 -4 20 9 27 24 38 28 38 11 0 -5
-5 -7 -12 -3 -7 5 -8 3 -4 -5 6 -9 12 -9 24 2 13 11 67 17 67 7 0 -2 10 -4 23
-5 18 -2 21 1 17 19 -5 18 -5 19 5 4 6 -10 17 -15 27 -11 11 4 14 3 9 -5 -5
-8 -2 -10 8 -6 9 3 14 9 11 14 -2 4 13 4 35 0 34 -6 38 -5 29 7 -10 11 -9 12
5 7 9 -3 16 -10 16 -15 0 -5 5 -9 11 -9 5 0 7 4 4 10 -3 5 -3 10 2 11 4 0 16
2 26 4 10 2 14 -1 11 -7 -4 -6 -1 -8 7 -6 8 3 13 11 11 18 -3 11 0 11 12 0 11
-8 16 -9 16 -1 0 6 4 11 10 11 5 0 7 -8 4 -17 -5 -14 -2 -14 13 3 18 20 21 20
32 5 6 -9 9 -11 6 -5 -2 7 2 15 11 18 8 3 12 2 9 -4 -3 -6 1 -7 9 -4 9 3 13
10 10 15 -3 5 2 6 10 3 9 -3 13 -11 10 -18 -3 -6 2 -2 11 9 18 22 36 26 47 10
5 -6 8 -6 8 3 0 6 5 12 11 12 5 0 7 -5 3 -12 -4 -7 -3 -8 4 -4 7 4 12 14 12
22 0 8 5 14 11 14 6 0 8 -7 5 -16 -5 -13 -4 -14 7 -6 8 7 18 8 22 4 5 -4 5 -1
1 6 -4 7 -1 12 9 12 10 0 14 -5 10 -12 -4 -7 -1 -6 7 3 7 9 19 14 27 11 10 -3
11 0 5 9 -6 11 -3 10 11 -1 10 -8 16 -10 12 -3 -5 7 2 17 15 24 21 11 22 11 9
-5 -12 -14 -12 -16 2 -10 8 3 18 12 21 21 5 12 9 13 21 3 12 -10 15 -9 15 6 0
15 2 16 9 5 8 -12 12 -12 25 -2 8 7 20 10 26 6 6 -4 9 -1 8 7 -2 8 5 12 20 11
15 -2 21 1 16 8 -4 7 -1 10 7 7 8 -3 20 4 27 16 9 14 12 16 8 4 -7 -23 0 -23
27 2 12 11 28 18 35 15 10 -4 12 0 8 12 -6 14 -4 15 5 6 9 -9 16 -7 31 10 11
12 17 16 13 10 -8 -17 12 -17 22 0 15 23 49 37 62 24 9 -9 11 -8 5 7 -6 16 -4
18 14 14 14 -4 22 -2 22 7 0 7 12 21 28 31 24 16 25 16 13 1 -8 -10 -11 -20
-7 -24 3 -3 6 -2 6 3 0 5 10 20 21 34 11 14 18 20 15 14 -3 -6 1 -11 9 -11 8
0 13 3 10 5 -3 3 3 11 13 19 9 8 11 11 3 7 -10 -5 -12 -3 -7 5 6 9 11 9 21 1
9 -7 16 -6 26 7 13 17 13 17 -6 3 -19 -14 -19 -14 -6 3 8 10 20 16 27 13 8 -3
20 4 28 16 9 13 19 17 28 12 9 -5 8 -2 -2 11 -9 11 -10 16 -2 11 6 -4 12 -3
12 2 0 6 8 9 17 8 9 0 22 9 28 21 8 16 15 19 22 12 8 -8 11 -6 10 7 -1 11 9
24 26 32 15 7 27 20 27 28 0 8 5 12 10 9 6 -3 10 -1 10 5 0 6 5 8 13 4 9 -6 9
-5 -1 8 -10 13 -9 15 13 12 23 -2 24 0 13 14 -11 13 -11 15 4 10 12 -5 18 0
22 19 6 22 9 23 23 11 14 -10 15 -10 9 0 -9 15 23 44 38 35 5 -4 6 -1 2 6 -6
9 -12 9 -24 -1 -10 -7 -6 0 8 15 13 15 30 25 36 23 8 -3 11 2 9 14 -2 11 1 19
8 17 7 -1 11 4 9 11 -1 6 3 12 9 12 5 0 7 6 3 12 -5 8 0 7 11 -2 11 -9 16 -10
11 -2 -4 6 -3 12 3 12 6 0 7 7 4 17 -5 12 -3 14 7 8 10 -6 12 -4 6 10 -5 15
-4 16 9 5 9 -7 15 -9 14 -4 -4 22 2 45 10 40 5 -3 12 6 15 19 4 14 10 24 14
22 4 -2 16 5 26 16 15 16 16 19 3 14 -11 -4 -14 -2 -10 9 3 9 12 13 21 9 12
-4 13 -3 2 10 -11 13 -10 14 4 9 12 -5 15 -2 9 12 -5 14 -3 16 12 11 15 -6 16
-5 6 7 -8 10 -9 16 -1 21 6 3 8 11 5 16 -3 5 1 6 9 3 15 -6 20 6 19 43 -1 7 6
13 14 13 10 0 14 7 11 18 -3 11 7 32 25 52 16 19 26 29 22 21 -6 -10 -4 -12 5
-6 10 6 10 11 -4 20 -15 11 -14 13 6 19 19 5 20 8 8 16 -13 8 -13 10 2 10 9 0
20 5 24 12 4 7 3 8 -4 4 -7 -4 -12 -4 -12 -1 0 9 27 35 36 35 5 0 3 -5 -4 -12
-9 -9 -7 -15 6 -25 9 -8 11 -11 4 -8 -11 6 -12 3 -3 -13 6 -12 16 -24 21 -27
6 -4 7 -11 4 -17 -4 -7 -2 -8 4 -4 7 4 12 1 12 -8 0 -9 5 -16 10 -16 6 0 10
-12 10 -26 0 -16 4 -23 11 -18 7 4 7 -1 -1 -16 -7 -12 -8 -20 -3 -17 5 3 14
-3 21 -14 8 -12 9 -19 1 -19 -5 0 -7 -5 -4 -10 4 -6 10 -8 15 -5 9 6 24 -24
21 -44 -1 -7 2 -10 8 -6 6 3 11 1 11 -5 0 -6 5 -8 13 -4 7 5 6 0 -3 -11 -9
-11 -10 -16 -2 -11 7 4 12 2 12 -6 0 -9 3 -9 10 2 8 13 10 12 10 -4 0 -15 3
-16 14 -7 11 9 16 9 22 0 4 -7 3 -9 -3 -6 -5 3 -10 0 -10 -8 0 -10 5 -11 18
-4 25 13 29 11 23 -8 -5 -17 -5 -17 6 0 6 10 16 14 23 10 19 -12 36 -12 43 -2
4 6 11 6 19 -1 10 -8 15 -8 21 1 4 8 3 9 -4 5 -7 -4 -12 -3 -12 1 0 16 38 34
46 21 5 -7 3 -8 -6 -3 -9 5 -11 4 -6 -3 9 -15 11 -15 27 5 12 15 12 16 -1 8
-13 -8 -13 -6 -1 8 7 9 17 15 21 12 5 -3 11 4 15 15 3 11 11 20 18 20 8 0 8
-3 -1 -12 -7 -7 -12 -17 -12 -22 0 -6 8 1 18 17 10 15 22 24 27 20 4 -5 5 0 1
11 -4 13 -2 17 8 13 8 -3 20 1 27 9 10 12 9 13 -7 8 -18 -5 -18 -5 -1 6 9 6
21 8 27 5 5 -3 7 4 5 15 -2 11 -1 18 4 16 4 -3 13 -1 21 5 13 7 13 9 0 9 -8 1
-4 6 10 12 14 6 29 10 35 9 5 -1 1 7 -10 19 -18 20 -18 21 0 14 14 -6 17 -4
12 9 -4 12 -2 14 10 10 12 -5 15 -2 10 11 -5 12 0 19 16 26 12 5 18 9 14 9 -4
1 -3 10 3 21 6 11 16 17 22 14 7 -4 8 -3 4 4 -4 7 -3 12 3 12 6 0 8 6 5 14 -3
7 2 16 11 20 9 3 13 11 9 18 -5 8 -2 9 9 5 21 -8 21 -3 0 18 -15 16 -15 17 3
15 32 -4 37 -1 24 15 -9 11 -9 15 -1 15 7 0 10 4 6 9 -3 5 -1 12 5 16 5 3 10
1 10 -6 0 -7 3 -10 6 -7 3 4 0 16 -6 28 -7 12 -8 20 -2 16 12 -7 25 40 15 57
-4 7 1 6 11 -2 9 -8 16 -10 15 -5 -5 29 2 55 14 48 9 -6 9 -4 -1 8 -10 13 -10
18 -1 24 8 5 9 3 4 -6 -5 -9 -4 -11 4 -6 9 6 9 11 0 22 -9 11 -8 14 5 14 12 0
15 7 12 25 -3 15 0 25 7 25 8 0 8 3 0 11 -9 9 -5 22 14 51 13 22 20 37 15 34
-6 -3 -13 1 -16 10 -3 8 -2 12 4 9 15 -9 31 30 18 43 -9 9 -9 12 1 12 11 0 11
3 1 15 -11 13 -10 14 5 9 14 -6 16 -4 8 12 -12 23 -6 47 10 37 7 -3 4 3 -7 15
-19 21 -18 22 5 31 21 9 22 10 4 11 -19 1 -19 1 -1 11 15 9 16 13 5 20 -12 8
-12 11 1 19 13 9 13 10 0 10 -9 1 -5 6 10 16 l25 15 -25 -7 c-20 -6 -23 -4
-14 7 21 26 24 59 6 59 -12 1 -10 5 8 15 14 8 20 14 14 15 -6 0 -10 14 -10 30
0 17 4 30 10 30 6 0 4 5 -4 10 -9 6 -11 13 -5 18 15 11 17 34 4 43 -10 6 -10
11 0 23 11 13 11 16 0 17 -8 0 -5 4 6 9 11 5 15 9 9 9 -7 1 -15 8 -18 17 -3 8
-2 12 4 9 6 -3 10 1 10 10 0 10 -5 14 -12 9 -10 -6 -10 -4 0 7 6 7 12 17 12
22 0 4 -6 5 -12 1 -10 -6 -10 -4 0 8 10 13 10 17 0 21 -8 3 -5 6 7 7 19 1 19
1 2 11 -14 8 -16 14 -6 25 6 8 8 14 4 14 -4 0 -2 7 5 15 11 13 10 14 -1 10
-16 -6 -19 31 -5 53 4 7 3 12 -2 12 -11 0 -9 30 2 49 5 8 3 16 -5 21 -10 7
-10 12 2 26 9 11 9 15 2 10 -7 -4 -13 -3 -13 1 0 5 6 15 13 22 10 11 9 13 -5
8 -10 -3 -20 -1 -24 5 -5 7 -2 8 6 3 10 -6 12 -3 7 14 -5 19 -3 20 10 9 13
-10 13 -6 -2 22 -20 38 -27 72 -13 64 5 -4 7 -13 3 -23 -4 -12 -3 -13 5 -5 8
8 8 18 -1 38 -11 23 -10 29 2 37 11 7 8 9 -11 10 -19 1 -21 2 -6 6 15 4 16 7
5 14 -12 7 -12 12 -1 30 8 11 9 18 3 14 -6 -3 -11 1 -11 10 0 10 -5 14 -12 10
-7 -4 -5 0 4 7 15 13 15 15 0 26 -13 9 -14 10 -2 6 11 -3 16 2 16 15 0 14 -4
17 -12 10 -9 -7 -12 -4 -10 14 2 13 7 30 11 37 5 8 4 11 -3 6 -7 -4 -10 3 -7
23 2 17 -2 35 -10 41 -14 12 -14 27 -1 49 6 9 5 12 -1 8 -6 -4 -14 0 -17 9 -3
8 -2 12 3 9 5 -3 12 -1 16 5 3 5 0 10 -8 10 -9 0 -13 11 -11 35 2 21 -1 33 -6
30 -13 -8 -13 2 1 27 10 18 9 20 -5 15 -14 -6 -15 -3 -6 13 9 16 8 20 -7 20
-15 0 -15 1 2 13 14 11 15 16 5 22 -9 6 -11 4 -5 -5 5 -9 4 -11 -4 -6 -9 6 -9
11 1 24 10 13 10 14 0 8 -9 -6 -11 -1 -8 19 4 21 2 24 -8 16 -10 -9 -13 -6
-11 13 2 14 6 30 11 37 4 8 3 9 -4 5 -7 -4 -12 -1 -12 8 0 8 6 17 13 20 6 3 2
3 -10 0 -18 -4 -22 -2 -17 10 4 9 0 18 -9 22 -9 3 -18 13 -22 22 -5 14 -4 15
6 4 7 -6 18 -12 24 -12 5 0 2 5 -8 11 -9 6 -14 15 -11 21 4 7 2 8 -5 4 -6 -4
-19 1 -29 11 -9 11 -13 13 -8 6 6 -10 4 -12 -8 -7 -9 3 -16 12 -16 18 0 7 -12
11 -29 10 -15 -1 -35 3 -42 8 -10 7 -9 8 6 3 15 -5 17 -3 8 6 -9 9 -17 8 -34
-5 -30 -21 -40 -20 -33 1 5 14 4 15 -4 4 -5 -7 -15 -11 -21 -7 -6 4 -9 1 -5
-7 4 -10 -2 -14 -18 -13 -14 0 -22 -4 -20 -12 1 -6 -3 -12 -9 -12 -5 0 -7 -5
-3 -12 4 -6 3 -9 -2 -6 -11 7 -35 -17 -26 -27 4 -4 2 -6 -3 -5 -24 5 -35 -1
-35 -21 0 -11 -4 -17 -10 -14 -5 3 -10 1 -10 -5 0 -6 -5 -8 -10 -5 -6 4 -9 2
-8 -4 2 -5 -6 -17 -17 -26 -11 -9 -14 -13 -6 -9 9 5 12 3 7 -4 -4 -7 -14 -12
-22 -12 -8 0 -12 -4 -9 -10 3 -5 1 -11 -4 -11 -6 -1 -15 -2 -20 -3 -5 0 -13
-5 -18 -10 -5 -5 -3 -6 5 -2 6 4 12 2 12 -4 0 -6 -7 -13 -15 -16 -8 -4 -12
-10 -9 -15 3 -5 2 -9 -3 -8 -4 1 -15 1 -23 0 -13 -1 -13 -2 0 -11 13 -8 12
-10 -5 -11 -11 -1 -24 -1 -29 0 -5 1 -3 -6 4 -16 8 -10 11 -15 6 -11 -5 4 -15
0 -23 -8 -8 -8 -18 -12 -23 -9 -8 5 -25 -23 -22 -36 1 -4 -8 -5 -18 -2 -15 4
-20 0 -21 -13 0 -11 -3 -13 -6 -7 -3 10 -8 9 -20 -2 -8 -8 -18 -13 -23 -10 -4
3 -19 -8 -33 -25 -16 -19 -27 -25 -30 -17 -3 6 -6 1 -6 -13 -1 -18 -4 -21 -10
-12 -12 19 -16 19 -39 -1 -13 -12 -26 -16 -34 -11 -9 5 -8 2 2 -11 9 -11 10
-16 3 -11 -7 4 -13 3 -13 -3 0 -5 -11 -8 -25 -7 -13 2 -24 0 -23 -3 2 -18 -4
-21 -24 -10 -20 11 -22 11 -10 -3 10 -13 10 -18 1 -24 -8 -4 -9 -3 -5 4 4 7 2
12 -3 12 -6 0 -11 -5 -11 -11 0 -5 -4 -8 -9 -4 -6 3 -15 -3 -21 -12 -11 -17
-11 -16 -5 1 6 20 6 20 -16 0 -15 -12 -20 -14 -15 -4 5 10 3 10 -6 -2 -10 -11
-19 -13 -31 -7 -14 8 -15 6 -10 -8 6 -16 5 -16 -10 -4 -14 11 -18 11 -23 -3
-4 -10 -13 -15 -20 -12 -8 3 -30 -3 -49 -14 -24 -13 -36 -16 -41 -8 -4 6 -3 8
4 4 6 -3 13 -2 16 3 4 5 -2 8 -11 6 -10 -2 -22 -4 -26 -4 -5 -1 -5 -6 -2 -11
3 -5 1 -10 -4 -10 -6 0 -11 6 -11 13 0 9 -2 9 -8 -1 -5 -7 -21 -15 -37 -18
-16 -3 -33 -8 -37 -11 -5 -3 -16 3 -24 13 -9 11 -13 13 -9 7 4 -8 0 -13 -10
-13 -9 0 -14 -4 -10 -9 3 -6 -7 -6 -27 0 -41 11 -41 11 -32 -3 5 -7 3 -8 -6
-3 -22 13 -54 11 -68 -5 -12 -13 -13 -13 -7 4 6 20 6 20 -16 0 -20 -17 -22
-17 -16 -1 8 22 -2 22 -20 0 -8 -10 -12 -12 -8 -5 8 16 -7 16 -24 -1 -9 -7
-11 -7 -8 -1 9 15 -16 25 -33 14 -8 -5 -22 -4 -31 1 -27 14 -33 11 -18 -8 11
-15 11 -16 -1 -5 -8 6 -22 12 -33 12 -10 0 -15 5 -12 11 4 6 -2 5 -13 -2 -17
-10 -23 -10 -36 1 -14 11 -16 10 -10 -4 5 -12 2 -15 -12 -9 -10 4 -15 2 -11
-3 3 -6 -3 -11 -14 -11 -12 -1 -17 3 -13 9 4 7 2 8 -5 4 -6 -4 -9 -11 -6 -15
8 -14 -32 -44 -47 -35 -9 6 -9 3 1 -10 8 -9 10 -16 5 -15 -19 3 -34 -1 -34
-12 0 -5 4 -7 10 -4 5 3 7 0 4 -8 -3 -8 -15 -20 -27 -26 -12 -6 -14 -9 -4 -7
9 3 17 2 17 -1 0 -4 -8 -15 -17 -26 -10 -11 -12 -17 -5 -13 8 5 12 -1 12 -19
0 -18 4 -24 13 -19 8 5 8 2 -2 -9 -9 -11 -10 -17 -2 -17 6 0 11 -5 11 -11 0
-5 -6 -7 -12 -3 -7 4 -4 -2 6 -14 21 -25 36 -31 16 -7 -7 9 -8 15 -2 15 12 0
24 -29 16 -41 -3 -5 -2 -9 3 -8 21 4 33 -2 33 -17 0 -14 3 -14 15 -4 13 11 14
10 8 -5 -5 -14 -3 -17 10 -12 10 4 17 2 17 -4 0 -6 7 -8 16 -5 8 3 12 2 9 -4
-3 -6 -2 -10 4 -10 5 0 12 6 14 13 3 7 6 5 6 -5 1 -11 9 -18 20 -18 11 0 22
-6 24 -12 4 -10 6 -10 6 0 1 8 11 2 27 -13 14 -14 30 -23 35 -20 5 4 9 -2 9
-12 0 -15 2 -16 10 -3 8 13 10 12 10 -3 0 -11 4 -15 12 -11 8 5 9 2 4 -11 -6
-16 -4 -16 11 -4 12 10 15 10 9 1 -9 -16 12 -44 27 -35 6 3 7 1 3 -5 -4 -7 -3
-12 3 -12 11 0 9 -19 -3 -39 -6 -9 -5 -12 2 -7 6 3 13 2 17 -4 3 -5 -2 -10
-12 -11 -10 0 -13 -3 -5 -6 6 -2 12 -16 12 -29 0 -14 -4 -23 -8 -20 -4 2 -9
-4 -9 -15 -1 -12 3 -17 9 -13 7 4 8 2 4 -4 -4 -7 -14 -12 -22 -12 -8 0 -14 -5
-14 -11 0 -5 4 -8 8 -5 5 3 9 -1 9 -9 0 -8 -2 -13 -5 -10 -6 6 -42 -40 -42
-54 0 -6 -4 -11 -10 -11 -5 0 -10 -7 -10 -15 0 -8 -5 -15 -11 -15 -5 0 -7 -6
-3 -12 6 -10 4 -10 -8 0 -13 10 -17 10 -22 -4 -3 -8 -12 -14 -19 -11 -6 2 -20
-8 -30 -22 l-19 -26 7 25 6 25 -15 -25 c-9 -14 -15 -19 -16 -11 0 11 -4 10
-13 -4 -9 -12 -19 -15 -28 -10 -12 8 -12 6 0 -8 12 -15 12 -17 -3 -11 -9 3
-24 0 -33 -7 -14 -12 -16 -12 -8 0 5 10 4 12 -3 7 -7 -4 -12 -14 -12 -22 0 -8
-5 -14 -11 -14 -5 0 -7 6 -3 13 5 9 4 9 -6 0 -10 -9 -17 -10 -27 -1 -11 9 -12
7 -7 -7 5 -12 4 -16 -3 -12 -14 9 -45 -2 -38 -13 3 -5 0 -12 -6 -16 -7 -4 -9
-3 -5 4 3 6 2 13 -4 17 -5 3 -10 1 -10 -6 0 -8 -4 -8 -15 1 -13 11 -14 10 -8
-6 6 -17 5 -18 -12 -4 -15 12 -17 12 -10 1 6 -11 4 -13 -8 -8 -9 3 -17 1 -19
-5 -5 -14 -48 -22 -48 -9 0 5 -11 8 -24 7 -13 0 -22 -5 -19 -9 6 -10 -37 -4
-55 7 -12 7 -12 4 -2 -15 13 -23 12 -24 -7 -7 -14 13 -22 15 -31 6 -9 -9 -13
-7 -18 6 -6 15 -7 15 -19 -1 -13 -17 -14 -17 -20 0 -6 13 -11 15 -20 7 -10 -8
-15 -8 -21 1 -5 8 -3 9 6 4 9 -5 11 -4 6 3 -5 9 -13 9 -26 2 -24 -13 -30 -13
-30 1 0 5 5 7 12 3 7 -4 8 -3 4 5 -6 9 -11 9 -21 1 -10 -8 -15 -8 -21 1 -5 8
-3 9 6 4 9 -5 11 -4 6 4 -4 6 -11 9 -16 6 -5 -3 -12 -1 -15 5 -5 8 -11 8 -20
0 -12 -10 -13 -7 -10 10 2 13 2 20 -2 17 -3 -4 -15 -2 -27 4 -20 10 -20 9 -2
-5 18 -14 18 -15 -2 -13 -11 0 -20 4 -20 7 2 19 -4 30 -14 28 -7 -2 -12 2 -11
8 1 7 -5 11 -15 10 -10 0 -17 6 -16 15 1 11 -5 15 -17 12 -11 -3 -19 0 -19 6
0 7 5 9 12 5 6 -4 8 -3 4 4 -3 6 -15 9 -26 7 -12 -2 -18 0 -15 6 4 5 1 9 -5 9
-6 0 -8 4 -5 10 6 10 -9 15 -30 10 -5 -1 -7 2 -3 6 5 4 -1 13 -12 21 -11 8
-20 24 -20 36 0 17 -2 19 -9 8 -7 -11 -10 -9 -13 10 -2 15 -9 23 -18 21 -10
-1 -8 3 5 14 20 16 20 16 -2 10 -18 -6 -21 -4 -18 13 2 12 -1 21 -6 21 -6 0
-7 6 -3 13 5 7 0 6 -11 -3 -10 -8 -16 -10 -12 -3 4 6 3 14 -3 18 -5 3 -10 11
-10 16 0 6 5 7 12 3 7 -4 8 -3 4 4 -4 7 -14 12 -22 12 -8 0 -14 9 -14 20 0 11
-5 20 -11 20 -7 0 -9 10 -7 24 4 17 1 23 -9 19 -16 -6 -17 9 0 26 10 11 9 13
-5 8 -10 -3 -20 -2 -23 3 -3 5 3 11 12 13 17 4 17 5 1 6 -10 0 -18 8 -18 16 0
8 -5 15 -11 15 -5 0 -7 4 -4 10 3 5 -1 23 -10 39 -19 39 -19 50 1 25 8 -10 12
-12 8 -4 -4 8 -14 23 -22 32 -7 9 -11 22 -7 27 3 6 1 11 -4 11 -6 0 -11 5 -11
11 0 5 4 7 10 4 6 -3 7 1 4 9 -3 9 -10 14 -14 11 -10 -6 -8 15 3 33 5 6 5 16
2 22 -12 20 -14 50 -3 56 7 5 8 2 3 -6 -5 -9 -4 -11 4 -6 7 5 8 13 4 19 -10
15 -10 38 0 55 5 6 6 16 3 21 -4 5 -1 11 5 13 6 2 12 16 12 31 1 15 6 27 10
27 4 0 3 10 -4 21 -7 13 -7 19 -1 15 6 -3 13 -2 17 4 3 5 0 10 -7 10 -8 0 -9
3 -3 8 6 4 12 16 13 27 2 11 8 22 13 23 5 2 9 17 9 33 0 17 4 28 8 25 4 -2 14
0 22 6 13 8 12 9 -2 5 -9 -3 -19 1 -22 8 -6 18 10 29 27 19 8 -5 8 -2 -2 9 -9
12 -10 17 -2 17 7 0 9 5 6 10 -3 6 -1 10 6 10 8 0 8 4 -1 15 -11 13 -10 14 5
9 12 -5 16 -4 11 4 -3 6 0 17 7 24 12 11 12 15 -2 25 -14 11 -13 12 8 8 19 -4
22 -2 13 7 -16 16 -15 31 1 25 8 -3 14 1 14 9 0 7 -5 10 -11 7 -5 -4 1 9 14
27 13 19 18 30 9 26 -7 -4 -6 -1 3 7 12 9 14 17 7 24 -8 8 -7 13 2 18 8 5 10
4 5 -3 -4 -7 -2 -12 5 -12 6 0 9 8 6 20 -3 11 -1 20 4 20 6 0 9 6 7 14 -2 8 6
22 17 31 11 9 15 14 8 11 -6 -4 -15 -2 -18 4 -4 6 -3 10 2 9 25 -4 35 1 24 14
-8 10 -6 18 7 33 20 21 22 26 22 49 0 8 5 15 11 15 5 0 7 -5 3 -12 -4 -7 -3
-8 5 -4 9 6 9 11 -1 24 -11 14 -10 15 7 8 16 -6 17 -5 8 5 -10 10 -9 15 5 25
13 10 13 13 3 14 -9 0 -6 7 9 20 13 11 18 20 11 20 -7 0 -9 5 -6 11 4 6 13 8
20 5 8 -3 11 2 8 15 -3 11 0 19 6 19 9 0 9 6 0 22 -11 21 -11 22 4 10 13 -11
15 -10 13 12 -2 14 2 24 8 23 6 -1 10 6 10 15 -1 10 5 18 15 19 10 0 11 2 4 6
-7 2 -13 9 -13 15 0 6 6 8 13 5 10 -4 14 4 12 28 -1 19 2 32 5 30 4 -2 16 3
26 11 10 9 12 12 4 8 -12 -6 -13 -5 -4 7 6 8 10 24 9 36 -1 12 1 22 4 21 24
-2 33 4 28 22 -3 11 -1 18 4 14 5 -3 9 4 9 15 0 13 7 21 18 21 13 0 14 2 3 9
-11 7 -9 11 8 21 19 10 20 14 9 28 -10 12 -10 14 0 8 7 -4 12 -2 12 4 0 6 5 8
12 4 6 -4 8 -3 4 4 -3 6 -2 13 3 17 6 3 7 13 4 22 -5 12 -3 14 8 8 11 -7 11
-5 -1 10 -14 17 -13 18 3 12 13 -5 17 -2 15 11 -2 9 3 16 10 14 6 -1 13 2 13
8 3 20 4 25 12 37 6 9 3 11 -10 8 -10 -3 -8 0 5 6 12 7 22 16 22 21 0 5 -6 6
-12 2 -8 -4 -10 -3 -5 2 5 5 14 9 19 9 6 0 13 6 16 14 3 8 0 11 -7 7 -7 -4 -9
-1 -5 8 3 9 12 12 22 8 14 -5 15 -3 4 10 -10 12 -10 17 1 27 8 6 16 8 20 5 8
-9 3 19 -7 35 -7 11 -5 13 7 8 21 -8 32 10 17 28 -10 12 -8 13 8 10 16 -3 20
1 17 15 -2 13 1 17 10 14 10 -4 13 0 10 15 -3 15 1 21 13 21 15 0 15 2 2 10
-13 9 -7 14 12 11 4 0 4 7 1 16 -4 9 -2 14 3 10 6 -3 15 3 22 14 7 11 8 19 2
19 -5 0 -10 -4 -10 -10 0 -5 -5 -10 -10 -10 -17 0 23 49 40 50 12 1 12 3 1 7
-11 4 -8 10 10 25 13 11 18 17 11 13 -11 -6 -11 -3 -1 13 7 12 17 19 21 16 4
-3 5 3 1 12 -4 12 -3 15 5 10 9 -5 9 0 2 19 -7 17 -7 24 0 20 6 -3 10 -1 10 5
0 6 5 8 10 5 9 -5 12 1 9 21 0 3 8 12 18 21 10 8 12 12 3 8 -8 -4 -1 5 15 20
17 14 24 24 18 20 -18 -9 -16 3 2 21 8 9 15 25 15 37 0 18 2 19 10 7 8 -12 10
-11 10 7 0 12 5 25 10 28 6 4 7 11 4 17 -5 8 -1 9 11 4 15 -5 16 -4 6 8 -8 10
-9 16 -1 21 6 3 7 11 4 17 -4 7 -2 8 5 4 9 -6 9 -12 -1 -24 -12 -15 -11 -15 4
-4 9 7 15 22 13 33 -2 10 1 19 7 19 5 0 8 7 5 14 -4 11 -1 13 11 9 15 -6 15
-5 4 10 -12 14 -11 16 8 12 19 -4 20 -2 8 12 -11 14 -11 16 1 8 11 -6 13 -4 8
9 -5 12 0 19 16 26 12 5 16 9 8 9 -11 1 -10 5 4 15 10 7 20 21 22 30 2 9 4 23
6 32 2 9 12 23 22 30 10 8 15 14 9 14 -5 0 -1 5 9 11 9 5 17 17 17 24 0 8 4
15 10 15 5 0 6 7 3 17 -4 10 -2 14 4 10 13 -8 26 20 16 36 -4 7 0 8 11 4 10
-4 15 -3 11 3 -3 6 -1 10 4 10 6 0 11 4 11 10 0 5 -8 7 -17 3 -15 -5 -14 -3 2
10 11 8 24 13 28 10 5 -3 4 4 -2 15 -10 18 -8 20 7 17 15 -3 18 2 16 21 -2 22
0 23 13 12 14 -12 15 -11 5 9 -8 14 -9 24 -2 28 6 4 8 10 5 15 -3 5 0 12 6 16
7 4 9 3 5 -4 -3 -6 -2 -13 4 -17 10 -6 14 7 10 35 -1 8 1 12 6 8 11 -11 39 33
40 62 0 17 5 25 17 24 9 -1 15 2 12 6 -3 5 1 11 7 13 10 4 10 6 1 6 -7 1 -13
6 -13 13 0 6 3 8 6 5 10 -10 46 42 38 54 -4 7 -3 9 2 6 6 -3 16 3 23 15 9 15
10 18 0 13 -8 -5 -10 -4 -5 3 4 7 14 12 22 12 8 0 14 5 14 11 0 5 -4 7 -10 4
-6 -3 -7 1 -4 9 3 9 11 14 17 13 7 -1 12 7 12 18 0 13 7 19 18 19 15 -2 16 1
5 14 -11 14 -10 15 6 9 17 -7 17 -6 5 10 -12 15 -12 16 2 11 12 -5 15 -1 13
18 -1 15 2 22 9 17 7 -4 8 0 4 11 -4 11 -3 15 4 11 6 -4 13 2 16 14 3 12 9 21
14 21 5 0 9 5 9 11 0 5 -6 7 -12 3 -9 -5 -9 -2 1 9 7 9 20 17 28 17 8 0 11 4
8 10 -3 5 1 23 10 40 18 34 31 42 15 8 -10 -21 -9 -20 9 2 11 14 16 27 11 28
-6 2 -10 8 -10 13 0 6 5 7 10 4 6 -3 10 1 10 10 0 10 5 13 12 9 8 -5 9 -2 5 9
-7 19 9 23 17 5 3 -7 2 1 -1 17 -5 25 -4 28 8 18 12 -10 15 -8 15 7 0 10 -5
16 -10 13 -5 -3 -6 -1 -2 5 4 7 15 12 24 12 13 0 14 2 4 9 -11 7 -10 9 3 15 9
3 13 11 9 17 -4 8 -3 9 4 5 7 -4 12 -2 12 5 0 7 3 10 6 6 4 -3 13 1 21 9 12
11 18 12 29 3 11 -9 14 -8 14 2 0 11 2 11 10 -1 7 -12 13 -13 28 -4 14 9 22 9
35 -1 9 -6 13 -16 9 -21 -4 -4 1 -2 11 5 9 7 17 9 17 4 0 -12 33 -13 41 -1 3
5 12 2 19 -7 11 -13 10 -15 -3 -10 -8 4 -18 2 -21 -3 -3 -5 10 -8 29 -6 22 1
35 -2 35 -9 0 -7 4 -6 10 3 8 12 10 12 10 -5 0 -17 2 -17 10 -5 7 11 10 12 10
2 0 -9 7 -11 20 -7 13 4 22 1 26 -9 3 -9 12 -16 20 -16 8 0 14 -4 14 -10 0 -5
4 -10 10 -10 5 0 7 8 4 18 -5 16 -5 16 6 0 6 -10 18 -18 26 -18 10 0 12 -5 8
-12 -5 -8 0 -7 11 2 10 8 16 10 12 3 -5 -7 2 -17 15 -24 22 -12 22 -11 8 7
-14 18 -13 18 10 -1 14 -11 28 -24 32 -30 5 -6 8 -5 8 3 0 7 5 10 10 7 6 -4 8
-11 5 -16 -3 -5 2 -6 11 -2 12 4 15 3 10 -5 -10 -16 6 -15 23 1 11 10 13 10 7
0 -4 -7 -2 -13 3 -13 6 0 11 -8 12 -17 0 -16 1 -16 8 0 7 18 8 18 21 1 12 -15
12 -16 1 -9 -10 5 -12 4 -7 -4 6 -9 11 -9 24 1 12 10 14 10 8 1 -4 -8 -1 -13
8 -13 9 0 16 -6 16 -12 0 -10 2 -10 9 0 6 11 10 10 15 -3 4 -10 12 -15 22 -11
8 3 13 2 11 -2 -3 -4 1 -12 8 -19 11 -10 15 -10 18 0 3 7 6 4 6 -6 1 -10 6
-15 11 -12 6 3 10 1 10 -4 0 -6 9 -11 20 -11 11 0 20 -4 20 -10 0 -5 7 -10 16
-10 9 0 24 -10 35 -22 17 -21 18 -21 12 -3 -6 17 -5 18 10 7 8 -8 14 -19 11
-26 -3 -7 2 -13 10 -13 8 0 13 4 10 9 -3 4 0 8 5 8 6 0 11 -8 11 -17 0 -15 2
-16 10 -3 9 13 10 13 11 0 1 -8 1 -19 0 -23 -1 -5 4 -5 10 -1 7 4 18 -1 26
-11 13 -18 13 -18 14 1 0 18 1 18 8 1 4 -10 11 -18 16 -18 6 1 11 -3 11 -9 3
-21 4 -22 18 -11 11 9 19 5 37 -18 13 -16 27 -27 31 -25 4 3 8 -2 8 -10 0 -9
4 -16 10 -16 5 0 7 8 3 18 -5 14 -3 13 10 -3 8 -11 13 -24 10 -29 -4 -5 0 -6
7 -1 8 5 18 1 27 -10 9 -14 13 -15 13 -4 1 10 3 9 11 -4 6 -9 14 -15 20 -12 5
4 9 1 9 -5 0 -6 5 -8 10 -5 9 6 14 -7 11 -27 0 -4 6 -5 14 -2 9 4 22 1 30 -6
8 -7 15 -9 15 -5 0 4 7 2 15 -5 11 -9 12 -16 5 -25 -8 -9 -4 -12 15 -10 15 2
25 -2 25 -10 0 -7 8 -19 18 -26 15 -13 16 -12 3 4 -12 15 -12 17 3 11 15 -6
20 -18 17 -37 -1 -5 3 -6 9 -2 6 3 7 11 4 17 -5 7 -2 8 5 4 7 -5 10 -14 7 -22
-3 -8 0 -11 10 -7 8 3 22 -3 32 -14 9 -10 13 -13 8 -6 -6 10 -4 12 8 7 9 -3
16 -12 16 -20 0 -15 21 -15 32 1 4 6 8 2 8 -9 0 -11 5 -16 14 -13 7 3 19 0 25
-6 9 -9 11 -8 5 6 -5 13 -2 16 10 11 9 -3 13 -11 9 -18 -4 -6 6 -3 21 8 16 10
26 13 22 8 -4 -6 2 -10 13 -9 11 0 18 4 15 8 -2 4 3 10 12 13 8 3 12 2 9 -4
-10 -17 11 -11 34 9 12 11 31 18 42 16 10 -2 18 -1 18 3 -3 19 2 23 16 12 13
-11 14 -10 10 3 -4 8 -1 18 6 23 8 4 10 3 5 -4 -4 -7 -2 -12 3 -12 10 0 15 14
12 32 0 4 7 4 16 1 11 -4 14 -3 9 6 -5 8 0 10 19 7 24 -4 25 -3 13 11 -8 10
-8 14 -1 10 6 -4 18 0 26 8 9 8 21 15 27 15 6 0 8 4 5 10 -3 6 -1 10 5 10 6 0
8 4 5 10 -3 5 -1 10 4 10 6 0 11 -6 11 -12 0 -7 5 -5 11 5 5 9 7 23 3 30 -6 8
-3 8 9 -1 14 -12 16 -11 12 8 -4 19 -2 20 12 8 10 -7 14 -8 10 -1 -4 6 -2 13
3 15 6 2 12 13 12 25 2 15 8 20 21 17 14 -2 16 0 8 10 -14 17 -2 29 16 14 11
-8 12 -7 7 6 -4 9 -1 16 6 16 7 0 10 7 6 15 -3 8 -1 15 5 15 6 0 7 5 3 12 -4
6 -3 8 2 5 6 -3 16 -2 24 4 10 6 11 9 3 9 -7 0 -13 5 -13 11 0 6 10 8 23 5 12
-3 16 -3 10 0 -7 3 -13 10 -13 15 0 6 4 8 9 5 5 -3 8 7 7 22 -2 24 2 28 19 26
13 -1 22 4 22 12 0 11 -4 11 -16 2 -9 -7 -5 1 9 16 14 16 19 26 13 22 -7 -4
-13 -2 -13 3 0 6 5 11 11 11 5 0 7 5 4 10 -3 6 0 13 9 16 8 3 13 14 11 26 -3
14 0 18 10 14 10 -3 12 0 8 11 -4 11 -3 14 6 9 7 -5 10 -2 9 6 -2 7 -10 16
-18 20 -12 5 -12 7 3 7 10 1 17 9 17 20 0 11 5 23 10 26 6 4 8 16 4 27 -5 17
-3 20 11 14 13 -5 15 -3 8 6 -13 18 -9 53 12 84 9 14 12 23 5 19 -8 -5 -11 -3
-8 6 3 8 10 13 15 12 5 -1 8 15 7 35 0 20 3 40 9 43 13 9 -2 31 -15 23 -7 -4
-8 -2 -4 5 4 6 12 8 18 5 7 -5 9 -1 5 9 -3 10 -2 17 3 17 6 0 10 5 10 11 0 5
-4 7 -10 4 -14 -9 -12 9 3 24 10 10 9 11 -4 6 -10 -4 -16 0 -16 9 0 8 7 12 16
9 12 -3 12 -2 -1 7 -20 12 -25 36 -6 24 7 -4 8 -3 4 5 -4 6 -11 9 -16 6 -4 -3
-13 2 -20 10 -11 13 -10 14 5 9 13 -5 16 -4 11 4 -4 7 -13 12 -21 12 -7 0 -17
9 -20 20 -3 11 -13 20 -21 20 -11 0 -14 7 -10 23 3 12 3 16 0 10 -3 -7 -12
-13 -20 -13 -10 0 -12 5 -8 13 5 7 0 6 -11 -3 -10 -8 -16 -10 -12 -3 8 13 -27
28 -43 18 -5 -3 -10 1 -10 10 0 9 -5 13 -10 10 -6 -4 -7 -11 -4 -17 4 -7 0 -7
-12 0 -11 6 -23 10 -27 10 -5 0 -11 3 -14 6 -3 3 4 3 16 1 12 -2 19 0 16 5 -6
9 -31 8 -41 -3 -14 -14 -26 -7 -14 8 11 14 10 14 -13 6 -18 -7 -28 -7 -33 1
-5 7 -3 8 6 3 9 -5 11 -4 6 4 -4 6 -12 9 -17 5 -6 -3 -20 2 -32 13 -19 16 -20
16 -8 0 12 -15 12 -17 -3 -11 -9 3 -16 10 -16 14 0 4 -7 11 -16 14 -8 3 -12 2
-9 -4 3 -6 -1 -7 -9 -4 -9 3 -13 11 -9 18 4 6 -2 4 -12 -4 -10 -8 -16 -10 -12
-4 4 7 0 14 -8 18 -8 3 -15 0 -15 -7 0 -8 -4 -7 -9 3 -6 8 -8 17 -5 21 2 4 -5
5 -16 2 -11 -3 -20 -1 -20 5 0 5 -7 13 -16 16 -15 6 -15 4 -3 -10 13 -16 12
-16 -8 -4 -12 8 -21 19 -20 24 1 6 -10 9 -25 8 -17 -2 -28 1 -28 8 0 7 -8 10
-20 7 -16 -4 -18 -2 -10 13 8 15 6 17 -9 13 -10 -3 -22 0 -25 6 -4 5 -13 8
-20 5 -7 -3 -16 2 -20 12 -5 12 -9 14 -20 5 -11 -9 -15 -7 -19 9 -4 14 -10 18
-23 13 -11 -4 -15 -3 -10 5 4 7 -1 10 -14 7 -13 -3 -18 0 -14 7 5 8 1 9 -11 4
-16 -6 -16 -4 -4 10 13 16 12 16 -9 5 -18 -10 -23 -9 -28 4 -3 8 -10 12 -15 9
-5 -3 -9 1 -9 8 0 9 -3 9 -10 -2 -8 -12 -10 -11 -10 8 0 12 -5 22 -11 22 -5 0
-7 -4 -4 -10 3 -6 -1 -7 -9 -4 -9 3 -16 14 -16 23 0 14 -2 14 -10 1 -7 -11
-10 -11 -10 -2 0 8 -5 10 -12 6 -8 -5 -9 -2 -5 10 6 14 4 15 -14 5 -12 -6 -19
-7 -16 -2 3 4 -1 14 -9 21 -9 8 -14 9 -14 2 0 -6 -4 -9 -10 -5 -5 3 -7 11 -4
19 3 7 -2 13 -10 13 -8 0 -13 -4 -11 -8 3 -4 -4 -5 -16 -2 -16 5 -18 8 -7 15
9 7 5 8 -15 5 -22 -3 -25 -2 -16 9 6 8 10 14 8 15 -33 6 -38 6 -33 -4 3 -7 -1
-4 -10 7 -8 10 -20 15 -27 10 -8 -4 -10 -3 -5 4 5 8 0 12 -12 12 -12 0 -22 9
-25 22 -5 17 -9 19 -20 10 -10 -9 -16 -7 -27 8 -10 15 -17 17 -27 8 -11 -8
-12 -7 -7 7 5 13 4 16 -4 11 -7 -4 -12 -2 -12 4 0 6 -4 9 -9 5 -5 -3 -12 -1
-16 5 -4 6 -11 8 -16 5 -5 -3 -6 1 -2 11 5 14 3 15 -17 4 -17 -9 -21 -9 -15 0
7 12 -33 47 -49 42 -13 -4 -46 30 -39 41 3 6 1 7 -6 3 -6 -4 -8 -12 -5 -18 4
-6 -2 -6 -15 1 -11 7 -21 14 -21 17 0 3 5 2 12 -2 7 -4 8 -3 4 5 -6 9 -12 9
-24 -1 -10 -7 -14 -9 -10 -4 9 11 -16 36 -36 36 -9 0 -16 5 -16 10 0 6 -9 10
-21 10 -14 0 -19 5 -16 14 4 10 1 13 -9 9 -8 -3 -14 1 -14 8 0 11 -3 11 -10
-1 -8 -13 -10 -12 -10 3 0 10 -4 15 -10 12 -5 -3 -10 -1 -10 4 0 6 -5 11 -11
11 -5 0 -7 -5 -3 -12 4 -7 3 -8 -4 -4 -6 4 -8 14 -5 23 4 11 3 14 -5 9 -8 -4
-12 0 -13 11 -1 13 -3 11 -9 -7 -4 -14 -8 -19 -9 -12 -1 19 -24 39 -39 34 -6
-2 -15 4 -18 12 -4 11 -13 15 -28 11 -17 -5 -18 -4 -6 4 13 10 13 11 0 11 -13
0 -13 1 0 10 8 5 10 10 4 10 -5 0 -16 -6 -23 -12 -9 -9 -12 -9 -7 -1 3 7 -6
17 -23 24 -16 7 -27 18 -23 24 3 5 -3 3 -13 -5 -11 -9 -16 -10 -11 -2 4 7 1
12 -9 12 -9 0 -13 5 -10 10 3 6 -3 10 -15 10 -12 0 -18 5 -15 10 3 6 2 10 -4
10 -5 0 -12 -6 -14 -12 -3 -7 -6 -3 -6 8 -1 12 -7 22 -13 21 -41 -1 -50 3 -39
17 10 12 9 14 -7 9 -14 -3 -21 2 -25 18 -5 20 -8 21 -23 8 -12 -9 -15 -10 -10
-1 5 8 1 12 -10 12 -10 0 -15 3 -12 6 4 3 2 18 -2 34 -7 24 -6 28 8 23 10 -4
13 -2 8 5 -4 7 -3 12 3 12 5 0 8 11 6 25 -1 14 2 28 8 32 6 3 7 1 3 -5 -4 -7
-1 -12 6 -12 8 0 15 9 16 20 4 50 5 50 20 37 13 -10 14 -9 3 10 -10 20 -9 22
5 16 13 -5 15 -3 9 7 -6 10 -4 12 10 6 15 -5 16 -4 5 9 -9 11 -9 15 -1 15 7 0
9 5 6 10 -3 6 2 10 12 10 15 0 16 2 3 10 -12 8 -10 10 8 10 16 0 21 4 16 13
-4 6 -4 9 1 5 4 -4 14 -3 21 3 8 7 14 6 20 -2 4 -8 3 -9 -4 -5 -7 4 -12 2 -12
-4 0 -7 7 -9 16 -6 9 3 18 6 20 6 3 0 2 6 -2 13 -5 9 -4 9 6 0 11 -10 16 -9
27 5 7 9 13 13 12 7 -3 -23 2 -26 17 -10 12 12 19 13 30 4 8 -6 14 -7 14 -2 0
12 31 13 47 1 7 -6 14 -4 19 3 5 8 3 9 -6 4 -9 -5 -11 -4 -6 4 5 7 16 9 28 5
15 -4 18 -3 13 6 -6 9 -4 11 6 4 24 -15 38 -13 31 4 -5 15 -4 15 11 3 14 -11
18 -11 23 4 5 13 9 14 15 3 7 -10 9 -11 9 0 0 7 5 10 10 7 6 -3 13 1 16 9 8
21 25 10 18 -12 -5 -14 -4 -14 4 -2 6 8 8 18 5 24 -4 5 3 7 15 4 13 -4 20 -2
16 3 -3 6 5 8 20 5 18 -3 23 -1 19 10 -4 10 0 12 13 7 11 -4 15 -3 11 4 -5 7
0 9 13 6 14 -4 20 0 20 10 0 9 13 18 30 22 19 4 28 11 23 18 -5 8 -2 8 8 0 13
-10 20 -9 38 8 12 12 20 28 17 36 -3 8 -1 11 4 8 6 -3 10 -13 10 -22 0 -18 15
-8 15 10 1 7 7 11 14 9 8 -2 11 3 8 12 -4 10 0 14 14 11 10 -2 19 1 19 6 0 5
8 9 17 7 12 -2 18 4 18 19 0 12 4 25 9 30 5 5 6 3 2 -4 -5 -8 -1 -13 9 -13 11
0 15 5 11 15 -3 8 -2 14 2 14 21 -3 32 2 26 13 -5 8 -2 9 9 5 9 -3 19 -1 23 5
5 7 2 8 -6 3 -9 -5 -11 -4 -6 3 4 7 13 12 20 12 7 0 23 12 37 26 23 26 23 26
2 13 -13 -8 -23 -17 -23 -21 0 -5 -6 -8 -12 -8 -7 0 3 14 22 29 25 21 37 26
43 18 5 -8 7 -3 4 10 -3 14 0 21 7 20 6 -1 10 4 8 12 -3 12 -1 12 13 1 9 -7
15 -9 14 -4 -5 26 3 43 22 49 13 4 18 12 15 22 -4 9 1 17 14 20 11 3 17 10 13
16 -4 6 0 8 9 4 21 -7 31 3 18 18 -7 9 -5 17 7 26 16 13 17 12 4 -3 -8 -12 -9
-18 -2 -18 6 0 14 12 17 28 4 15 19 38 33 52 15 14 22 22 17 18 -6 -5 -15 -8
-21 -8 -5 0 2 8 17 18 22 15 25 21 15 31 -9 10 -8 11 7 5 15 -6 18 -4 13 9 -4
11 -2 14 9 10 7 -3 14 0 14 6 0 6 -6 11 -12 11 -7 0 -5 5 5 11 9 5 21 8 26 5
5 -4 7 3 4 14 -6 21 14 53 27 45 4 -3 6 9 5 25 -1 16 1 28 5 25 4 -3 11 2 14
11 3 8 11 12 17 8 8 -4 9 -3 5 4 -4 6 -14 9 -24 6 -9 -3 -6 2 8 10 23 14 23
15 5 16 -15 1 -16 3 -5 7 19 8 40 35 34 45 -3 5 -1 8 5 8 6 0 7 7 4 17 -5 12
-3 14 8 8 8 -4 11 -5 7 0 -4 4 -3 14 4 22 9 11 7 12 -8 7 -18 -6 -17 -5 1 9
11 9 16 17 10 17 -7 0 -7 3 0 8 18 13 36 52 24 52 -6 0 -3 8 8 18 10 9 13 13
6 8 -18 -12 -16 -1 3 18 9 9 11 16 4 16 -6 0 -8 5 -5 10 4 6 10 8 14 6 4 -3 7
10 7 27 -1 22 3 31 13 29 11 -2 11 2 -2 22 -12 18 -14 27 -5 32 7 4 8 3 4 -4
-4 -7 -3 -12 2 -12 15 0 23 28 10 32 -8 3 -6 12 5 28 15 22 15 25 0 42 -15 17
-15 18 -1 13 13 -5 15 -2 11 16 -5 17 -3 20 8 14 8 -5 6 1 -4 12 -14 16 -15
23 -6 29 8 5 10 3 4 -7 -5 -8 -4 -10 0 -6 17 15 14 39 -3 32 -13 -5 -12 -1 4
16 10 12 13 19 7 15 -16 -9 -17 10 -2 20 8 5 8 9 -1 14 -9 6 -9 13 -1 28 9 17
8 23 -6 31 -17 10 -16 10 2 11 16 0 17 2 5 9 -8 6 -18 7 -24 4 -5 -3 -6 -1 -2
6 4 6 13 8 19 5 9 -5 9 -3 0 6 -10 11 -9 16 5 27 16 12 15 12 -3 6 -18 -6 -18
-5 -6 10 12 15 11 17 -5 18 -12 0 -14 3 -6 6 10 4 9 9 -5 19 -10 8 -13 13 -8
12 6 -2 10 2 10 7 0 6 -4 9 -8 7 -4 -1 -3 7 3 17 7 14 7 22 -2 27 -7 5 -8 3
-3 -6 5 -9 4 -11 -3 -6 -9 5 -9 13 -2 27 6 10 8 20 5 20 -3 1 -9 2 -14 3 -5 0
-13 5 -18 10 -4 5 -3 6 3 3 7 -4 14 2 17 14 4 15 2 19 -9 15 -12 -5 -12 -2 -3
17 12 21 11 21 -6 7 -17 -14 -17 -14 -7 6 9 17 9 24 -2 33 -7 6 -15 9 -18 6
-2 -3 -5 2 -5 10 0 8 4 12 9 9 4 -3 8 0 8 5 0 6 -7 11 -16 11 -13 0 -14 3 -4
15 10 12 8 14 -8 10 -16 -3 -19 2 -19 33 0 23 -4 36 -11 34 -7 -1 -12 7 -12
18 0 13 -6 20 -14 18 -8 -2 -14 2 -13 7 1 6 7 9 12 7 6 -2 -2 8 -17 21 -22 19
-25 26 -15 37 10 10 9 12 -5 7 -12 -4 -19 1 -24 16 -4 12 -19 33 -33 46 -14
13 -19 20 -11 16 8 -3 7 0 -4 9 -10 8 -15 19 -12 24 3 6 -2 8 -14 5 -12 -3
-20 0 -20 6 0 7 5 9 11 5 8 -4 8 0 0 15 -7 11 -14 21 -17 21 -3 0 -2 -4 1 -10
3 -6 -1 -7 -9 -4 -9 3 -13 10 -10 15 3 5 1 9 -5 9 -5 0 -13 9 -16 20 -4 11
-11 18 -16 15 -5 -4 -9 1 -9 10 0 9 -4 14 -9 11 -5 -3 -12 6 -15 20 -5 20 -12
25 -26 21 -11 -3 -23 0 -27 5 -3 7 -1 8 5 4 7 -4 12 -2 12 3 0 6 -4 11 -10 11
-5 0 -10 8 -11 18 0 16 -1 16 -7 0 -6 -15 -9 -13 -21 13 -7 16 -16 28 -19 25
-2 -3 1 -14 9 -23 13 -16 12 -17 -3 -4 -10 7 -18 20 -18 28 0 8 -4 11 -10 8
-5 -3 -10 -1 -10 4 0 6 -5 11 -11 11 -7 0 -23 12 -37 28 -13 15 -21 22 -18 15
3 -6 2 -15 -4 -18 -6 -4 -10 -3 -9 2 1 4 1 17 0 28 -1 17 -3 18 -11 5 -8 -13
-10 -12 -10 3 0 16 -12 22 -34 18 -5 -1 -6 5 -3 13 4 10 0 14 -14 11 -11 -2
-17 0 -14 6 4 5 -1 9 -10 9 -9 0 -14 4 -11 9 3 5 -1 11 -9 14 -10 4 -12 1 -8
-11 6 -14 5 -15 -9 -2 -8 8 -13 21 -11 28 4 8 0 10 -11 6 -10 -4 -16 -1 -16 7
0 11 -3 11 -11 -1 -9 -12 -10 -11 -6 6 3 13 -1 21 -9 21 -7 0 -11 -4 -8 -9 3
-4 0 -8 -5 -8 -6 0 -11 7 -11 16 0 10 -6 14 -14 11 -8 -3 -17 1 -20 9 -3 9
-10 12 -16 9 -5 -3 -10 -1 -10 4 0 6 -9 11 -20 11 -11 0 -20 7 -20 16 0 8 -4
13 -9 10 -5 -3 -22 4 -37 16 -19 15 -24 17 -15 5 12 -15 12 -17 -3 -11 -9 3
-16 10 -16 15 0 5 -7 9 -16 9 -8 0 -13 4 -9 10 3 5 -9 8 -31 6 -31 -2 -34 -1
-20 9 15 11 15 13 -4 18 -13 3 -18 1 -14 -6 3 -7 -1 -4 -9 5 -10 13 -16 15
-25 6 -9 -9 -12 -6 -13 12 0 14 -3 19 -6 13 -2 -7 -9 -13 -15 -13 -6 0 -8 7
-5 15 5 11 1 12 -18 5 -14 -5 -24 -6 -22 -1 1 5 -2 9 -8 9 -5 0 -9 -4 -7 -10
1 -5 -2 -7 -8 -3 -6 3 -7 11 -4 17 5 7 1 9 -9 5 -10 -3 -17 -2 -17 3 0 5 -7 6
-17 3 -12 -5 -14 -3 -8 8 7 11 5 11 -10 -1 -15 -12 -17 -12 -10 -1 6 11 4 13
-8 8 -9 -3 -19 -2 -22 3 -4 6 -14 6 -27 -1 -13 -7 -18 -7 -14 -1 3 6 2 13 -3
16 -5 4 -13 1 -16 -4 -5 -7 -12 -5 -22 7 -8 10 -12 13 -9 7 9 -18 -18 -23 -38
-8 -11 7 -23 11 -29 7 -5 -3 -13 1 -18 8 -6 10 -9 11 -9 2 0 -7 -5 -13 -11
-13 -5 0 -7 5 -4 10 8 13 -17 8 -28 -5 -4 -6 -13 -3 -22 9 -15 20 -15 20 -15
0 0 -15 -2 -16 -9 -5 -7 11 -13 12 -23 3 -11 -9 -17 -9 -27 1 -9 9 -14 9 -20
-2 -7 -11 -9 -11 -14 0 -4 12 -7 11 -16 -1 -6 -8 -11 -10 -11 -4 0 19 -27 24
-41 8z m-339 -64 c0 -5 -5 -10 -11 -10 -5 0 -7 5 -4 10 3 6 8 10 11 10 2 0 4
-4 4 -10z m-85 -30 c3 -5 -1 -10 -10 -10 -9 0 -13 5 -10 10 3 6 8 10 10 10 2
0 7 -4 10 -10z m1793 -495 c-3 -3 -9 2 -12 12 -6 14 -5 15 5 6 7 -7 10 -15 7
-18z m-3953 -1485 c3 -5 1 -10 -4 -10 -6 0 -11 5 -11 10 0 6 2 10 4 10 3 0 8
-4 11 -10z m4175 -126 c0 -8 -19 -13 -24 -6 -3 5 1 9 9 9 8 0 15 -2 15 -3z
m-2750 -114 c0 -5 -2 -10 -4 -10 -3 0 -8 5 -11 10 -3 6 -1 10 4 10 6 0 11 -4
11 -10z m-2560 -742 c0 -6 -6 -5 -15 2 -8 7 -15 14 -15 16 0 2 7 1 15 -2 8 -4
15 -11 15 -16z m4635 -728 c3 -5 1 -10 -4 -10 -6 0 -11 5 -11 10 0 6 2 10 4
10 3 0 8 -4 11 -10z m-3045 -120 c0 -5 -5 -10 -11 -10 -5 0 -7 5 -4 10 3 6 8
10 11 10 2 0 4 -4 4 -10z m3811 -297 c13 -16 12 -17 -3 -4 -10 7 -18 15 -18
17 0 8 8 3 21 -13z m-7034 -458 c0 -8 -4 -12 -9 -9 -5 3 -6 10 -3 15 9 13 12
11 12 -6z m4863 -909 c0 -2 -8 -10 -17 -17 -16 -13 -17 -12 -4 4 13 16 21 21
21 13z m-6495 -466 c-3 -5 -11 -10 -16 -10 -6 0 -7 5 -4 10 3 6 11 10 16 10 6
0 7 -4 4 -10z m1932 4 c-3 -3 -12 -4 -19 -1 -8 3 -5 6 6 6 11 1 17 -2 13 -5z
m-2177 -424 c0 -5 -5 -10 -11 -10 -5 0 -7 5 -4 10 3 6 8 10 11 10 2 0 4 -4 4
-10z m3570 -189 c0 -5 -7 -12 -16 -15 -14 -5 -15 -4 -4 9 14 17 20 19 20 6z
m2320 -435 c0 -3 -4 -8 -10 -11 -5 -3 -10 -1 -10 4 0 6 5 11 10 11 6 0 10 -2
10 -4z m-5510 -606 c0 -5 -5 -10 -11 -10 -5 0 -7 5 -4 10 3 6 8 10 11 10 2 0
4 -4 4 -10z m7160 -469 c0 -5 -7 -12 -16 -15 -14 -5 -15 -4 -4 9 14 17 20 19
20 6z m-100 -61 c0 -5 -5 -10 -11 -10 -5 0 -7 5 -4 10 3 6 8 10 11 10 2 0 4
-4 4 -10z m20 -1990 c0 -5 -2 -10 -4 -10 -3 0 -8 5 -11 10 -3 6 -1 10 4 10 6
0 11 -4 11 -10z m-5730 -245 c0 -8 -2 -15 -4 -15 -2 0 -6 7 -10 15 -3 8 -1 15
4 15 6 0 10 -7 10 -15z m5050 -519 c0 -3 -4 -8 -10 -11 -5 -3 -10 -1 -10 4 0
6 5 11 10 11 6 0 10 -2 10 -4z m-3875 -556 c3 -5 1 -10 -4 -10 -6 0 -11 5 -11
10 0 6 2 10 4 10 3 0 8 -4 11 -10z m-371 -148 c2 -4 -4 -8 -14 -8 -10 0 -16 4
-14 8 3 4 9 8 14 8 5 0 11 -4 14 -8z"/>
<path d="M9215 12321 c-3 -5 -2 -12 3 -15 5 -3 9 1 9 9 0 17 -3 19 -12 6z"/>
<path d="M6020 10426 c0 -2 8 -10 18 -17 15 -13 16 -12 3 4 -13 16 -21 21 -21
13z"/>
<path d="M7597 10199 c7 -7 15 -10 18 -7 3 3 -2 9 -12 12 -14 6 -15 5 -6 -5z"/>
<path d="M6761 10034 c0 -11 3 -14 6 -6 3 7 2 16 -1 19 -3 4 -6 -2 -5 -13z"/>
<path d="M5045 9640 c3 -5 8 -10 11 -10 2 0 4 5 4 10 0 6 -5 10 -11 10 -5 0
-7 -4 -4 -10z"/>
<path d="M9800 9400 c-9 -6 -10 -10 -3 -10 6 0 15 5 18 10 8 12 4 12 -15 0z"/>
<path d="M9375 9269 c-4 -6 -5 -12 -2 -15 2 -3 7 2 10 11 7 17 1 20 -8 4z"/>
<path d="M11235 7881 c-3 -5 -2 -12 3 -15 5 -3 9 1 9 9 0 17 -3 19 -12 6z"/>
<path d="M3190 7596 c0 -2 7 -7 16 -10 8 -3 12 -2 9 4 -6 10 -25 14 -25 6z"/>
<path d="M3910 7560 c0 -5 5 -10 11 -10 5 0 7 5 4 10 -3 6 -8 10 -11 10 -2 0
-4 -4 -4 -10z"/>
<path d="M11245 7500 c-3 -5 -1 -10 4 -10 6 0 11 5 11 10 0 6 -2 10 -4 10 -3
0 -8 -4 -11 -10z"/>
<path d="M8970 7470 c0 -5 5 -10 11 -10 5 0 7 5 4 10 -3 6 -8 10 -11 10 -2 0
-4 -4 -4 -10z"/>
<path d="M6296 7388 c3 -5 10 -6 15 -3 13 9 11 12 -6 12 -8 0 -12 -4 -9 -9z"/>
<path d="M2560 7145 c-7 -9 -8 -15 -2 -15 5 0 12 7 16 15 3 8 4 15 2 15 -2 0
-9 -7 -16 -15z"/>
<path d="M9966 7007 c3 -10 9 -15 12 -12 3 3 0 11 -7 18 -10 9 -11 8 -5 -6z"/>
<path d="M10190 6856 c0 -2 7 -7 16 -10 8 -3 12 -2 9 4 -6 10 -25 14 -25 6z"/>
<path d="M10230 6840 c0 -5 5 -10 11 -10 5 0 7 5 4 10 -3 6 -8 10 -11 10 -2 0
-4 -4 -4 -10z"/>
<path d="M3845 6560 c-3 -5 -1 -10 4 -10 6 0 11 5 11 10 0 6 -2 10 -4 10 -3 0
-8 -4 -11 -10z"/>
<path d="M8185 6370 c-3 -5 -1 -10 4 -10 6 0 11 5 11 10 0 6 -2 10 -4 10 -3 0
-8 -4 -11 -10z"/>
<path d="M5483 6075 c0 -8 4 -12 9 -9 5 3 6 10 3 15 -9 13 -12 11 -12 -6z"/>
<path d="M1588 5583 c6 -2 9 -10 6 -15 -4 -7 -2 -8 5 -4 13 9 5 26 -12 25 -9
0 -8 -2 1 -6z"/>
<path d="M1695 5480 c-3 -5 -1 -10 4 -10 6 0 11 5 11 10 0 6 -2 10 -4 10 -3 0
-8 -4 -11 -10z"/>
<path d="M4986 5333 c-6 -14 -5 -15 5 -6 7 7 10 15 7 18 -3 3 -9 -2 -12 -12z"/>
<path d="M4800 5069 c0 -5 5 -7 10 -4 6 3 10 8 10 11 0 2 -4 4 -10 4 -5 0 -10
-5 -10 -11z"/>
<path d="M4556 4778 c3 -5 10 -6 15 -3 13 9 11 12 -6 12 -8 0 -12 -4 -9 -9z"/>
<path d="M7239 4573 c-13 -16 -12 -17 4 -4 9 7 17 15 17 17 0 8 -8 3 -21 -13z"/>
<path d="M9335 4280 c-3 -5 -1 -10 4 -10 6 0 11 5 11 10 0 6 -2 10 -4 10 -3 0
-8 -4 -11 -10z"/>
<path d="M10003 4085 c0 -8 4 -15 9 -15 4 0 8 4 8 9 0 6 -4 12 -8 15 -5 3 -9
-1 -9 -9z"/>
<path d="M8026 3893 c-6 -14 -5 -15 5 -6 7 7 10 15 7 18 -3 3 -9 -2 -12 -12z"/>
<path d="M2315 3480 c3 -5 8 -10 11 -10 2 0 4 5 4 10 0 6 -5 10 -11 10 -5 0
-7 -4 -4 -10z"/>
<path d="M7221 3183 c-1 -17 16 -25 25 -12 4 7 3 9 -4 5 -5 -3 -13 0 -15 6 -4
9 -6 10 -6 1z"/>
<path d="M9010 2035 c-9 -11 -9 -15 -1 -15 7 0 9 -5 5 -12 -4 -7 -3 -10 1 -5
8 6 16 47 10 47 -2 0 -8 -7 -15 -15z"/>
<path d="M9210 1910 c0 -5 5 -10 11 -10 5 0 7 5 4 10 -3 6 -8 10 -11 10 -2 0
-4 -4 -4 -10z"/>
<path d="M7030 856 c0 -2 7 -7 16 -10 8 -3 12 -2 9 4 -6 10 -25 14 -25 6z"/>
<path d="M6356 822 c-3 -5 1 -9 9 -9 8 0 12 4 9 9 -3 4 -7 8 -9 8 -2 0 -6 -4
-9 -8z"/>
<path d="M6036 808 c3 -5 10 -6 15 -3 13 9 11 12 -6 12 -8 0 -12 -4 -9 -9z"/>
</g>
</svg>
